<svg width="40" height="40" viewBox="0 0 40 40" fill="none" xmlns="http://www.w3.org/2000/svg">
    <path d="M5 5L35 35M25 18.3333V16.6667L32.5883 12.8733C32.8424 12.7464 33.1246 12.6865 33.4083 12.6992C33.692 12.712 33.9677 12.7971 34.2093 12.9463C34.4509 13.0956 34.6504 13.3041 34.7888 13.5521C34.9271 13.8001 34.9998 14.0793 35 14.3633V25.6367C35.0001 25.9839 34.8917 26.3225 34.69 26.6052C34.4883 26.8879 34.2034 27.1005 33.875 27.2133" stroke="#F4F4F5" stroke-width="2" stroke-linecap="round" stroke-linejoin="round"/>
    <path d="M16.6667 10H21.6667C22.5507 10 23.3986 10.3512 24.0237 10.9763C24.6488 11.6014 25 12.4493 25 13.3333V18.3333M25 25V26.6667C25 27.5507 24.6488 28.3986 24.0237 29.0237C23.3986 29.6488 22.5507 30 21.6667 30H8.33333C7.44928 30 6.60143 29.6488 5.97631 29.0237C5.35119 28.3986 5 27.5507 5 26.6667V13.3333C5 12.4493 5.35119 11.6014 5.97631 10.9763C6.60143 10.3512 7.44928 10 8.33333 10H10" stroke="#F4F4F5" stroke-width="2" stroke-linecap="round" stroke-linejoin="round"/>
</svg>
