<svg width="40" height="40" viewBox="0 0 40 40"  xmlns="http://www.w3.org/2000/svg">
    <path d="M10 33.3333C9.52782 33.3333 9.13227 33.1733 8.81338 32.8533C8.49449 32.5333 8.33449 32.1377 8.33338 31.6666C8.33227 31.1955 8.49227 30.7999 8.81338 30.4799C9.13449 30.1599 9.53004 29.9999 10 29.9999H30C30.4723 29.9999 30.8684 30.1599 31.1884 30.4799C31.5084 30.7999 31.6678 31.1955 31.6667 31.6666C31.6656 32.1377 31.5056 32.5338 31.1867 32.8549C30.8678 33.176 30.4723 33.3355 30 33.3333H10ZM11.1667 27.4999C10.3612 27.4999 9.64616 27.236 9.02171 26.7083C8.39727 26.1805 8.01504 25.5138 7.87504 24.7083L6.20838 14.1249C6.15282 14.1249 6.0906 14.1321 6.02171 14.1466C5.95282 14.161 5.89004 14.1677 5.83338 14.1666C5.13893 14.1666 4.54893 13.9238 4.06338 13.4383C3.57782 12.9527 3.33449 12.3621 3.33338 11.6666C3.33227 10.971 3.5756 10.381 4.06338 9.89659C4.55116 9.41215 5.14116 9.16881 5.83338 9.16659C6.5256 9.16437 7.11616 9.4077 7.60504 9.89659C8.09393 10.3855 8.33671 10.9755 8.33338 11.6666C8.33338 11.861 8.31227 12.0416 8.27004 12.2083C8.22782 12.3749 8.17949 12.5277 8.12504 12.6666L13.3334 14.9999L18.5417 7.87492C18.2362 7.6527 17.9862 7.36103 17.7917 6.99992C17.5973 6.63881 17.5 6.24992 17.5 5.83326C17.5 5.13881 17.7434 4.54826 18.23 4.06159C18.7167 3.57492 19.3067 3.33214 20 3.33326C20.6934 3.33437 21.2839 3.5777 21.7717 4.06326C22.2595 4.54881 22.5023 5.13881 22.5 5.83326C22.5 6.24992 22.4028 6.63881 22.2084 6.99992C22.0139 7.36103 21.7639 7.6527 21.4584 7.87492L26.6667 14.9999L31.875 12.6666C31.8195 12.5277 31.7706 12.3749 31.7284 12.2083C31.6862 12.0416 31.6656 11.861 31.6667 11.6666C31.6667 10.9721 31.91 10.3816 32.3967 9.89492C32.8834 9.40826 33.4734 9.16548 34.1667 9.16659C34.86 9.1677 35.4506 9.41103 35.9384 9.89659C36.4262 10.3821 36.6689 10.9721 36.6667 11.6666C36.6645 12.361 36.4217 12.9516 35.9384 13.4383C35.455 13.9249 34.8645 14.1677 34.1667 14.1666C34.1112 14.1666 34.0489 14.1599 33.98 14.1466C33.9112 14.1333 33.8484 14.126 33.7917 14.1249L32.125 24.7083C31.9862 25.5138 31.6045 26.1805 30.98 26.7083C30.3556 27.236 29.64 27.4999 28.8334 27.4999H11.1667ZM11.1667 24.1666H28.8334L29.9167 17.2083L28 18.0416C27.2778 18.3471 26.5417 18.4027 25.7917 18.2083C25.0417 18.0138 24.4306 17.5971 23.9584 16.9583L20 11.4999L16.0417 16.9583C15.5695 17.5971 14.9584 18.0138 14.2084 18.2083C13.4584 18.4027 12.7223 18.3471 12 18.0416L10.0834 17.2083L11.1667 24.1666Z" />
</svg>
