<svg width="32" height="22" viewBox="0 0 32 22" fill="none" xmlns="http://www.w3.org/2000/svg">
    <g filter="url(#filter0_f_27_791)">
        <path d="M25.1805 11.2434L22.4305 13.9934C22.366 14.0579 22.2785 14.0941 22.1873 14.0941C22.0961 14.0941 22.0086 14.0579 21.9441 13.9934C21.8796 13.9289 21.8433 13.8414 21.8433 13.7502C21.8433 13.659 21.8796 13.5715 21.9441 13.507L24.1071 11.3439H7.89244L10.0555 13.507C10.12 13.5715 10.1562 13.659 10.1562 13.7502C10.1562 13.8414 10.12 13.9289 10.0555 13.9934C9.99098 14.0579 9.9035 14.0941 9.81228 14.0941C9.72106 14.0941 9.63358 14.0579 9.56908 13.9934L6.81908 11.2434C6.78712 11.2115 6.76176 11.1736 6.74446 11.1318C6.72717 11.0901 6.71826 11.0454 6.71826 11.0002C6.71826 10.955 6.72717 10.9103 6.74446 10.8686C6.76176 10.8268 6.78712 10.7889 6.81908 10.757L9.56908 8.00699C9.60102 7.97505 9.63893 7.94972 9.68066 7.93243C9.72239 7.91515 9.76712 7.90625 9.81228 7.90625C9.85745 7.90625 9.90217 7.91515 9.9439 7.93243C9.98563 7.94972 10.0235 7.97505 10.0555 8.00699C10.0874 8.03893 10.1128 8.07684 10.13 8.11857C10.1473 8.1603 10.1562 8.20502 10.1562 8.25019C10.1562 8.29536 10.1473 8.34008 10.13 8.38181C10.1128 8.42354 10.0874 8.46146 10.0555 8.49339L7.89244 10.6564H24.1071L21.9441 8.49339C21.8796 8.42889 21.8433 8.34141 21.8433 8.25019C21.8433 8.15897 21.8796 8.07149 21.9441 8.00699C22.0086 7.94249 22.0961 7.90625 22.1873 7.90625C22.2785 7.90625 22.366 7.94249 22.4305 8.00699L25.1805 10.757C25.2124 10.7889 25.2378 10.8268 25.2551 10.8686C25.2724 10.9103 25.2813 10.955 25.2813 11.0002C25.2813 11.0454 25.2724 11.0901 25.2551 11.1318C25.2378 11.1736 25.2124 11.2115 25.1805 11.2434Z" fill="#F4F4F5"/>
    </g>
    <path d="M25.181 11.2434L22.431 13.9934C22.3665 14.0579 22.279 14.0941 22.1878 14.0941C22.0966 14.0941 22.0091 14.0579 21.9446 13.9934C21.8801 13.9289 21.8438 13.8414 21.8438 13.7502C21.8438 13.659 21.8801 13.5715 21.9446 13.507L24.1076 11.3439H7.89293L10.056 13.507C10.1205 13.5715 10.1567 13.659 10.1567 13.7502C10.1567 13.8414 10.1205 13.9289 10.056 13.9934C9.99147 14.0579 9.90399 14.0941 9.81277 14.0941C9.72155 14.0941 9.63407 14.0579 9.56957 13.9934L6.81957 11.2434C6.78761 11.2115 6.76225 11.1736 6.74495 11.1318C6.72765 11.0901 6.71875 11.0454 6.71875 11.0002C6.71875 10.955 6.72765 10.9103 6.74495 10.8686C6.76225 10.8268 6.78761 10.7889 6.81957 10.757L9.56957 8.00699C9.60151 7.97505 9.63942 7.94972 9.68115 7.93243C9.72288 7.91515 9.7676 7.90625 9.81277 7.90625C9.85794 7.90625 9.90266 7.91515 9.94439 7.93243C9.98612 7.94972 10.024 7.97505 10.056 8.00699C10.0879 8.03893 10.1132 8.07684 10.1305 8.11857C10.1478 8.1603 10.1567 8.20502 10.1567 8.25019C10.1567 8.29536 10.1478 8.34008 10.1305 8.38181C10.1132 8.42354 10.0879 8.46146 10.056 8.49339L7.89293 10.6564H24.1076L21.9446 8.49339C21.8801 8.42889 21.8438 8.34141 21.8438 8.25019C21.8438 8.15897 21.8801 8.07149 21.9446 8.00699C22.0091 7.94249 22.0966 7.90625 22.1878 7.90625C22.279 7.90625 22.3665 7.94249 22.431 8.00699L25.181 10.757C25.2129 10.7889 25.2383 10.8268 25.2556 10.8686C25.2729 10.9103 25.2818 10.955 25.2818 11.0002C25.2818 11.0454 25.2729 11.0901 25.2556 11.1318C25.2383 11.1736 25.2129 11.2115 25.181 11.2434Z" fill="#F4F4F5"/>
    <defs>
        <filter id="filter0_f_27_791" x="0.618262" y="1.80625" width="30.763" height="18.388" filterUnits="userSpaceOnUse" color-interpolation-filters="sRGB">
            <feFlood flood-opacity="0" result="BackgroundImageFix"/>
            <feBlend mode="normal" in="SourceGraphic" in2="BackgroundImageFix" result="shape"/>
            <feGaussianBlur stdDeviation="3.05" result="effect1_foregroundBlur_27_791"/>
        </filter>
    </defs>
</svg>
