<svg xmlns="http://www.w3.org/2000/svg" width="27" height="26" viewBox="0 0 27 26" fill="none">
    <path fill-rule="evenodd" clip-rule="evenodd" d="M8.30241 4.14967C8.44334 4.05215 8.56116 3.93024 8.64893 3.79111C8.7367 3.65198 8.79265 3.49844 8.81347 3.33955C8.8343 3.18065 8.81958 3.01962 8.77019 2.86592C8.7208 2.71223 8.63774 2.56898 8.52589 2.44463C8.41404 2.32027 8.27568 2.21732 8.11894 2.14184C7.9622 2.06636 7.79027 2.01987 7.61326 2.00512C7.43626 1.99037 7.25776 2.00765 7.08829 2.05595C6.91882 2.10425 6.76181 2.18258 6.62649 2.28634C5.1888 3.33116 4.00832 4.63375 3.16009 6.11132C3.07599 6.25144 3.02375 6.40523 3.00641 6.56372C2.98907 6.72221 3.00699 6.88222 3.05911 7.03441C3.11123 7.18659 3.19651 7.32791 3.30997 7.45011C3.42344 7.57231 3.56281 7.67295 3.71996 7.74614C3.87711 7.81932 4.04888 7.86361 4.22525 7.87639C4.40162 7.88918 4.57905 7.87021 4.74719 7.8206C4.91532 7.771 5.0708 7.69174 5.20453 7.58746C5.33826 7.48318 5.44758 7.35597 5.52609 7.21325C6.20515 6.02963 7.15066 4.98628 8.30241 4.14967ZM23.375 2.28634C23.2397 2.18258 23.0827 2.10425 22.9132 2.05595C22.7437 2.00765 22.5652 1.99037 22.3882 2.00512C22.2112 2.01987 22.0393 2.06636 21.8826 2.14184C21.7258 2.21732 21.5875 2.32027 21.4756 2.44463C21.3638 2.56898 21.2807 2.71223 21.2313 2.86592C21.1819 3.01962 21.1672 3.18065 21.188 3.33955C21.2089 3.49844 21.2648 3.65198 21.3526 3.79111C21.4403 3.93024 21.5582 4.05215 21.6991 4.14967C22.8556 4.99007 23.804 6.03892 24.4834 7.22884C24.5635 7.36882 24.6735 7.49323 24.8071 7.59496C24.9406 7.69669 25.0951 7.77375 25.2617 7.82174C25.4284 7.86973 25.6039 7.8877 25.7782 7.87465C25.9526 7.86159 26.1224 7.81775 26.2779 7.74563C26.4334 7.67351 26.5716 7.57453 26.6847 7.45433C26.7977 7.33413 26.8833 7.19508 26.9366 7.0451C26.9899 6.89512 27.0099 6.73716 26.9954 6.58023C26.9809 6.42331 26.9322 6.27049 26.8521 6.13051C26.0032 4.64512 24.8189 3.33576 23.375 2.28634ZM5.67529 11.6114C5.67529 9.38532 6.65779 7.25043 8.40666 5.67637C10.1555 4.1023 12.5275 3.218 15.0007 3.218C17.474 3.218 19.846 4.1023 21.5948 5.67637C23.3437 7.25043 24.3262 9.38532 24.3262 11.6114V16.1246L26.7535 20.494C26.8652 20.6951 26.918 20.9185 26.9068 21.1432C26.8955 21.3678 26.8207 21.5861 26.6893 21.7774C26.558 21.9686 26.3745 22.1265 26.1563 22.236C25.9381 22.3454 25.6924 22.4029 25.4426 22.4029H4.55891C4.30909 22.4029 4.06341 22.3454 3.8452 22.236C3.62699 22.1265 3.4435 21.9686 3.31215 21.7774C3.18081 21.5861 3.10597 21.3678 3.09474 21.1432C3.08351 20.9185 3.13628 20.6951 3.24801 20.494L5.67529 16.1246V11.6114ZM11.0041 23.6019H18.9974C18.9974 24.2379 18.7167 24.8479 18.217 25.2976C17.7173 25.7474 17.0396 26 16.333 26H13.6685C12.9619 26 12.2842 25.7474 11.7845 25.2976C11.2848 24.8479 11.0041 24.2379 11.0041 23.6019Z" fill="#F4F4F5"/>
</svg>