<svg width="40" height="40" viewBox="0 0 40 40" fill="none" xmlns="http://www.w3.org/2000/svg">
    <path d="M26.6667 3.33325H13.3334C12.0073 3.33325 10.7355 3.86004 9.79785 4.79772C8.86017 5.7354 8.33339 7.00717 8.33339 8.33325V34.9999C8.33222 35.2936 8.40868 35.5824 8.55502 35.837C8.70136 36.0916 8.91238 36.3031 9.16672 36.4499C9.42009 36.5962 9.70749 36.6732 10.0001 36.6732C10.2926 36.6732 10.58 36.5962 10.8334 36.4499L20.0001 31.1499L29.1667 36.4499C29.4207 36.5939 29.7081 36.6686 30.0001 36.6666C30.292 36.6686 30.5794 36.5939 30.8334 36.4499C31.0877 36.3031 31.2988 36.0916 31.4451 35.837C31.5914 35.5824 31.6679 35.2936 31.6667 34.9999V8.33325C31.6667 7.00717 31.1399 5.7354 30.2023 4.79772C29.2646 3.86004 27.9928 3.33325 26.6667 3.33325ZM28.3334 32.1166L20.8334 27.7833C20.58 27.637 20.2926 27.56 20.0001 27.56C19.7075 27.56 19.4201 27.637 19.1667 27.7833L11.6667 32.1166V8.33325C11.6667 7.89122 11.8423 7.4673 12.1549 7.15474C12.4674 6.84218 12.8914 6.66659 13.3334 6.66659H26.6667C27.1087 6.66659 27.5327 6.84218 27.8452 7.15474C28.1578 7.4673 28.3334 7.89122 28.3334 8.33325V32.1166Z" fill="#F4F4F5"/>
</svg>
