<svg width="40" height="40" viewBox="0 0 40 40" fill="none" xmlns="http://www.w3.org/2000/svg">
    <path d="M12.5 36.6666C10.8888 36.6666 9.51385 36.0971 8.37496 34.9583C7.23607 33.8194 6.66663 32.4444 6.66663 30.8333V9.16658C6.66663 7.55547 7.23607 6.18047 8.37496 5.04159C9.51385 3.9027 10.8888 3.33325 12.5 3.33325H30C30.9166 3.33325 31.7016 3.65936 32.355 4.31159C33.0083 4.96381 33.3344 5.74881 33.3333 6.66659V27.5416C33.3333 27.7638 33.2433 27.9655 33.0633 28.1466C32.8833 28.3277 32.5566 28.5288 32.0833 28.7499C31.6944 28.9444 31.3888 29.2221 31.1666 29.5833C30.9444 29.9444 30.8333 30.361 30.8333 30.8333C30.8333 31.3055 30.9444 31.7294 31.1666 32.1049C31.3888 32.4805 31.6944 32.751 32.0833 32.9166C32.4722 33.0821 32.7777 33.3116 33 33.6049C33.2222 33.8983 33.3333 34.2105 33.3333 34.5416V34.9583C33.3333 35.4305 33.1733 35.8333 32.8533 36.1666C32.5333 36.4999 32.1377 36.6666 31.6666 36.6666H12.5ZM15 24.9999C15.4722 24.9999 15.8683 24.8399 16.1883 24.5199C16.5083 24.1999 16.6677 23.8044 16.6666 23.3333V8.33325C16.6666 7.86103 16.5066 7.46547 16.1866 7.14659C15.8666 6.8277 15.4711 6.6677 15 6.66659C14.5288 6.66547 14.1333 6.82547 13.8133 7.14659C13.4933 7.4677 13.3333 7.86325 13.3333 8.33325V23.3333C13.3333 23.8055 13.4933 24.2016 13.8133 24.5216C14.1333 24.8416 14.5288 25.001 15 24.9999ZM12.5 33.3333H28.0416C27.875 32.9444 27.7433 32.5488 27.6466 32.1466C27.55 31.7444 27.5011 31.3066 27.5 30.8333C27.5 30.3888 27.5416 29.9583 27.625 29.5416C27.7083 29.1249 27.8472 28.7221 28.0416 28.3333H12.5C11.7777 28.3333 11.1805 28.5766 10.7083 29.0633C10.2361 29.5499 9.99996 30.1399 9.99996 30.8333C9.99996 31.5555 10.2361 32.1527 10.7083 32.6249C11.1805 33.0971 11.7777 33.3333 12.5 33.3333Z"/>
</svg>
