<svg width="40" height="40" viewBox="0 0 40 40"  xmlns="http://www.w3.org/2000/svg">
    <path fill-rule="evenodd" clip-rule="evenodd" d="M19.9167 2.00048C16.87 2.00048 14.3517 2.26881 12.4133 2.59548L12.19 2.63381C10.5067 2.91548 9.10667 3.15048 8.01167 4.49714C7.31167 5.36214 7.08333 6.29714 7.03167 7.33881L6.21167 7.61214C5.44 7.86881 4.76167 8.09548 4.22667 8.34548C3.64667 8.61548 3.115 8.96214 2.70833 9.52714C2.30167 10.0921 2.14 10.7055 2.06667 11.3405C2 11.9288 2 12.6405 2 13.4555V13.6971C2 14.3671 2 14.9588 2.05 15.4538C2.10333 15.9888 2.22167 16.5105 2.51667 17.0138C2.815 17.5188 3.21167 17.8755 3.655 18.1821C4.06333 18.4655 4.58 18.7538 5.16667 19.0788L9.56667 21.5238C10.4667 23.2921 11.7017 24.8688 13.4 26.0071C14.8783 27.0005 16.6533 27.6238 18.755 27.7888C18.6984 27.9363 18.6685 28.0926 18.6667 28.2505V31.1671H16.2833C15.609 31.1672 14.9556 31.4008 14.4341 31.8284C13.9127 32.2559 13.5555 32.8509 13.4233 33.5121L13.0583 35.3338H9.91667C9.58515 35.3338 9.2672 35.4655 9.03278 35.6999C8.79836 35.9343 8.66667 36.2523 8.66667 36.5838C8.66667 36.9153 8.79836 37.2333 9.03278 37.4677C9.2672 37.7021 9.58515 37.8338 9.91667 37.8338H29.9167C30.2482 37.8338 30.5661 37.7021 30.8006 37.4677C31.035 37.2333 31.1667 36.9153 31.1667 36.5838C31.1667 36.2523 31.035 35.9343 30.8006 35.6999C30.5661 35.4655 30.2482 35.3338 29.9167 35.3338H26.775L26.41 33.5121C26.2778 32.8509 25.9206 32.2559 25.3992 31.8284C24.8778 31.4008 24.2243 31.1672 23.55 31.1671H21.1667V28.2505C21.1648 28.0926 21.1349 27.9363 21.0783 27.7888C23.18 27.6221 24.955 27.0005 26.4333 26.0088C28.1333 24.8688 29.3667 23.2921 30.2667 21.5238L34.6667 19.0788C35.2533 18.7538 35.77 18.4655 36.1783 18.1821C36.62 17.8755 37.0183 17.5188 37.315 17.0155C37.6117 16.5105 37.7317 15.9888 37.7833 15.4538C37.8333 14.9588 37.8333 14.3671 37.8333 13.6971V13.4555C37.8333 12.6421 37.8333 11.9288 37.7667 11.3405C37.6933 10.7055 37.5333 10.0905 37.125 9.52714C36.7183 8.96214 36.1867 8.61548 35.6083 8.34381C35.07 8.09381 34.3933 7.86881 33.6217 7.61214L32.8017 7.33881C32.7517 6.29548 32.5233 5.36214 31.8217 4.49714C30.7283 3.14881 29.3283 2.91381 27.645 2.63381L27.42 2.59548C24.9399 2.18795 22.43 1.98892 19.9167 2.00048ZM24.225 35.3338L23.9583 34.0021C23.9395 33.9077 23.8885 33.8228 23.814 33.7617C23.7396 33.7006 23.6463 33.6672 23.55 33.6671H16.2833C16.187 33.6672 16.0937 33.7006 16.0193 33.7617C15.9449 33.8228 15.8939 33.9077 15.875 34.0021L15.6083 35.3338H24.225ZM7.06333 9.96381L7.08667 9.95547C7.20667 12.4888 7.49167 15.2888 8.205 17.9055L6.42833 16.9205C5.78 16.5588 5.37333 16.3321 5.08 16.1288C4.81 15.9405 4.72167 15.8288 4.67333 15.7455C4.62333 15.6621 4.57 15.5321 4.53667 15.2055C4.50222 14.6851 4.48998 14.1635 4.5 13.6421V13.5205C4.5 12.6221 4.50167 12.0538 4.55 11.6238C4.59667 11.2271 4.67 11.0788 4.73667 10.9888C4.80167 10.8971 4.91833 10.7805 5.28 10.6121C5.67333 10.4288 6.21333 10.2488 7.06333 9.96381ZM32.7467 9.95381C32.6283 12.4871 32.3417 15.2871 31.63 17.9038L33.405 16.9188C34.0533 16.5571 34.46 16.3305 34.7533 16.1271C35.0233 15.9388 35.1117 15.8271 35.16 15.7438C35.21 15.6605 35.2633 15.5305 35.2967 15.2038C35.3317 14.8471 35.3333 14.3821 35.3333 13.6405V13.5188C35.3333 12.6205 35.3317 12.0521 35.2833 11.6221C35.2367 11.2255 35.1633 11.0771 35.0967 10.9871C35.0317 10.8955 34.915 10.7788 34.5533 10.6105C34.16 10.4271 33.62 10.2455 32.77 9.96047L32.7467 9.95381ZM12.83 5.06048C15.1725 4.677 17.543 4.48969 19.9167 4.50048C22.8167 4.50048 25.195 4.75548 27.0033 5.06048C29.015 5.40048 29.4367 5.52714 29.8817 6.07381C30.3183 6.61048 30.36 7.12048 30.27 9.37881C30.12 13.1421 29.6233 17.2055 28.0867 20.2955C27.3267 21.8188 26.3333 23.0655 25.0417 23.9321C23.7567 24.7938 22.0983 25.3338 19.9167 25.3338C17.735 25.3338 16.0783 24.7938 14.7933 23.9321C13.5 23.0655 12.5067 21.8188 11.7483 20.2938C10.21 17.2055 9.715 13.1438 9.565 9.37714C9.475 7.12048 9.515 6.61048 9.95333 6.07381C10.3967 5.52714 10.8183 5.40048 12.83 5.06048Z" />
</svg>
