<svg width="40" height="40" viewBox="0 0 40 40" fill="none" xmlns="http://www.w3.org/2000/svg">
    <path d="M19.1667 33.3333C18.2778 33.3333 17.4517 33.1111 16.6884 32.6667C15.925 32.2222 15.3067 31.6111 14.8334 30.8333C14.5278 30.2778 14.5212 29.7222 14.8134 29.1667C15.1056 28.6111 15.5567 28.3333 16.1667 28.3333C16.5278 28.3333 16.8473 28.4444 17.125 28.6667C17.4028 28.8889 17.6528 29.1389 17.875 29.4167C18.0139 29.6111 18.2017 29.7572 18.4384 29.855C18.675 29.9528 18.9178 30.0011 19.1667 30C19.6389 30 20.035 29.84 20.355 29.52C20.675 29.2 20.8345 28.8044 20.8334 28.3333C20.8323 27.8622 20.6723 27.4667 20.3534 27.1467C20.0345 26.8267 19.6389 26.6667 19.1667 26.6667H5.00005C4.52782 26.6667 4.13227 26.5067 3.81338 26.1867C3.49449 25.8667 3.33449 25.4711 3.33338 25C3.33227 24.5289 3.49227 24.1333 3.81338 23.8133C4.13449 23.4933 4.53005 23.3333 5.00005 23.3333H19.1667C20.5556 23.3333 21.7362 23.8194 22.7084 24.7917C23.6806 25.7639 24.1667 26.9444 24.1667 28.3333C24.1667 29.7222 23.6806 30.9028 22.7084 31.875C21.7362 32.8472 20.5556 33.3333 19.1667 33.3333ZM5.00005 16.6667C4.52782 16.6667 4.13227 16.5067 3.81338 16.1867C3.49449 15.8667 3.33449 15.4711 3.33338 15C3.33227 14.5289 3.49227 14.1333 3.81338 13.8133C4.13449 13.4933 4.53005 13.3333 5.00005 13.3333H25.8334C26.5278 13.3333 27.1184 13.0906 27.605 12.605C28.0917 12.1194 28.3345 11.5289 28.3334 10.8333C28.3323 10.1378 28.0895 9.54778 27.605 9.06333C27.1206 8.57889 26.53 8.33556 25.8334 8.33333C25.3889 8.33333 24.9723 8.43778 24.5834 8.64667C24.1945 8.85556 23.8889 9.15389 23.6667 9.54167C23.4723 9.875 23.2362 10.1739 22.9584 10.4383C22.6806 10.7028 22.3473 10.8344 21.9584 10.8333C21.4028 10.8333 20.9517 10.625 20.605 10.2083C20.2584 9.79167 20.1678 9.34722 20.3334 8.875C20.7223 7.70833 21.4239 6.77111 22.4384 6.06333C23.4528 5.35556 24.5845 5.00111 25.8334 5C27.4445 5 28.8195 5.56944 29.9584 6.70833C31.0973 7.84722 31.6667 9.22222 31.6667 10.8333C31.6667 12.4444 31.0973 13.8194 29.9584 14.9583C28.8195 16.0972 27.4445 16.6667 25.8334 16.6667H5.00005ZM33.25 29.5C32.6945 29.75 32.1528 29.7156 31.625 29.3967C31.0973 29.0778 30.8334 28.6122 30.8334 28C30.8334 27.6111 30.9656 27.285 31.23 27.0217C31.4945 26.7583 31.7928 26.5289 32.125 26.3333C32.5139 26.1111 32.8128 25.8056 33.0217 25.4167C33.2306 25.0278 33.3345 24.6111 33.3334 24.1667C33.3334 23.4722 33.0906 22.8822 32.605 22.3967C32.1195 21.9111 31.5289 21.6678 30.8334 21.6667H5.00005C4.52782 21.6667 4.13227 21.5067 3.81338 21.1867C3.49449 20.8667 3.33449 20.4711 3.33338 20C3.33227 19.5289 3.49227 19.1333 3.81338 18.8133C4.13449 18.4933 4.53005 18.3333 5.00005 18.3333H30.8334C32.4445 18.3333 33.8195 18.9028 34.9584 20.0417C36.0973 21.1806 36.6667 22.5556 36.6667 24.1667C36.6667 25.3333 36.3612 26.3961 35.75 27.355C35.1389 28.3139 34.3056 29.0289 33.25 29.5Z" fill="#F4F4F5"/>
</svg>
