<svg xmlns="http://www.w3.org/2000/svg" width="24" height="24" viewBox="0 0 24 24" fill="none">
    <path fill-rule="evenodd" clip-rule="evenodd" d="M0 3H24V21H0V3Z" fill="#F7FCFF"/>
    <path fill-rule="evenodd" clip-rule="evenodd" d="M0 13.9995V15.4995H24V13.9995H0ZM0 16.7505V18.2505H24V16.7505H0ZM0 8.5005V10.0005H24V8.5005H0ZM0 19.5V21H24V19.5H0ZM0 11.25V12.75H24V11.25H0ZM0 3V4.5H24V3H0ZM0 5.75025V7.25025H24V5.75025H0Z" fill="#E31D1C"/>
    <path d="M0 3H15V12.75H0V3Z" fill="#2E42A5"/>
    <path fill-rule="evenodd" clip-rule="evenodd" d="M1.29177 5.20425L0.747266 5.586L0.931016 4.9065L0.447266 4.476H1.07952L1.29102 3.92175L1.53927 4.47675H2.07777L1.65477 4.9065L1.81827 5.586L1.29177 5.20425ZM4.29177 5.20425L3.74727 5.586L3.93102 4.9065L3.44727 4.476H4.07952L4.29102 3.92175L4.53927 4.47675H5.07777L4.65477 4.9065L4.81827 5.586L4.29177 5.20425ZM6.74727 5.586L7.29177 5.2035L7.81827 5.586L7.65477 4.9065L8.07777 4.476H7.53927L7.29102 3.92175L7.07952 4.47675H6.44727L6.93102 4.9065L6.74727 5.586ZM10.2918 5.2035L9.74727 5.586L9.93102 4.9065L9.44727 4.476H10.0788L10.291 3.92175L10.5393 4.47675H11.0778L10.6548 4.9065L10.8183 5.586L10.2918 5.2035ZM0.747266 8.58675L1.29177 8.20425L1.81827 8.58675L1.65477 7.90725L2.07777 7.47675H1.53927L1.29102 6.9225L1.07952 7.4775H0.447266L0.931016 7.90725L0.747266 8.58675ZM4.29177 8.20425L3.74727 8.58675L3.93102 7.90725L3.44727 7.47675H4.07952L4.29102 6.9225L4.53927 7.4775H5.07777L4.65477 7.90725L4.81827 8.58675L4.29177 8.20425ZM6.74727 8.58675L7.29177 8.20425L7.81827 8.58675L7.65477 7.90725L8.07777 7.47675H7.53927L7.29102 6.9225L7.07952 7.4775H6.44727L6.93102 7.90725L6.74727 8.58675ZM10.2918 8.20425L9.74727 8.58675L9.93102 7.90725L9.44727 7.47675H10.0788L10.291 6.9225L10.5393 7.4775H11.0778L10.6548 7.90725L10.8183 8.58675L10.2918 8.20425ZM0.747266 11.5868L1.29177 11.2043L1.81827 11.5868L1.65477 10.9073L2.07777 10.4768H1.53927L1.29102 9.9225L1.07952 10.4775H0.447266L0.931016 10.9073L0.747266 11.5868ZM4.29177 11.2043L3.74727 11.5868L3.93102 10.9073L3.44727 10.4768H4.07952L4.29102 9.9225L4.53927 10.4775H5.07777L4.65477 10.9073L4.81827 11.5868L4.29177 11.2043ZM6.74727 11.5868L7.29177 11.2043L7.81827 11.5868L7.65477 10.9073L8.07777 10.4768H7.53927L7.29102 9.9225L7.07952 10.4775H6.44727L6.93102 10.9073L6.74727 11.5868ZM10.2918 11.2043L9.74727 11.5868L9.93102 10.9073L9.44727 10.4768H10.0788L10.291 9.9225L10.5393 10.4775H11.0778L10.6548 10.9073L10.8183 11.5868L10.2918 11.2043ZM12.7473 5.58675L13.2918 5.20425L13.8183 5.58675L13.6548 4.90725L14.0778 4.47675H13.5393L13.291 3.9225L13.0795 4.4775H12.4473L12.931 4.90725L12.7473 5.58675ZM13.2918 8.20425L12.7473 8.58675L12.931 7.90725L12.4473 7.47675H13.0795L13.291 6.9225L13.5393 7.4775H14.0778L13.6548 7.90725L13.8183 8.58675L13.2918 8.20425ZM12.7473 11.5868L13.2918 11.2043L13.8183 11.5868L13.6548 10.9073L14.0778 10.4768H13.5393L13.291 9.9225L13.0795 10.4775H12.4473L12.931 10.9073L12.7473 11.5868ZM2.79177 6.7035L2.24727 7.086L2.43102 6.4065L1.94727 5.976H2.57952L2.79102 5.42175L3.03927 5.97675H3.57777L3.15477 6.4065L3.31827 7.086L2.79177 6.7035ZM5.24727 7.086L5.79177 6.7035L6.31827 7.086L6.15477 6.4065L6.57777 5.976H6.03927L5.79102 5.42175L5.57952 5.97675H4.94727L5.43102 6.4065L5.24727 7.086ZM8.79177 6.7035L8.24727 7.086L8.43102 6.4065L7.94727 5.976H8.57877L8.79102 5.42175L9.03927 5.97675H9.57777L9.15477 6.4065L9.31827 7.086L8.79177 6.7035ZM2.24727 10.086L2.79177 9.7035L3.31827 10.086L3.15477 9.4065L3.57777 8.976H3.03927L2.79102 8.42175L2.57952 8.97675H1.94727L2.43102 9.4065L2.24727 10.086ZM5.79177 9.7035L5.24727 10.086L5.43102 9.4065L4.94727 8.976H5.57952L5.79102 8.42175L6.03927 8.97675H6.57777L6.15477 9.4065L6.31827 10.086L5.79177 9.7035ZM8.24727 10.086L8.79177 9.7035L9.31827 10.086L9.15477 9.4065L9.57777 8.976H9.03927L8.79102 8.42175L8.57877 8.97675H7.94727L8.43102 9.4065L8.24727 10.086ZM11.7918 6.7035L11.2473 7.086L11.431 6.4065L10.9473 5.976H11.5788L11.791 5.42175L12.0393 5.97675H12.5778L12.1548 6.4065L12.3183 7.086L11.7918 6.7035ZM11.2473 10.086L11.7918 9.7035L12.3183 10.086L12.1548 9.4065L12.5778 8.976H12.0393L11.791 8.42175L11.5788 8.97675H10.9473L11.431 9.4065L11.2473 10.086Z" fill="#F7FCFF"/>
</svg>