<svg width="40" height="40" viewBox="0 0 40 40" fill="none" xmlns="http://www.w3.org/2000/svg">
    <path fill-rule="evenodd" clip-rule="evenodd" d="M23.7384 4.18995C24.0967 4.65662 24.1667 5.16829 24.1667 5.51329C24.1667 9.33995 25.1801 12.8083 27.6601 15.3133C28.1106 15.7679 28.5702 16.2136 29.0384 16.65C30.3284 17.8616 31.9951 19.4283 32.7434 21.55C33.1267 22.64 33.3334 23.8 33.3334 25C33.3334 31.675 27.1134 36.6666 20.0001 36.6666C14.7534 36.6666 10.0901 34 7.92175 29.9533C7.10164 28.4302 6.67054 26.7281 6.66675 24.9983V23.56C6.66675 21.035 7.04841 18.5233 7.79841 16.11C7.96008 15.58 8.19341 14.94 8.60675 14.4783C8.84175 14.2166 9.25675 13.875 9.86841 13.8C10.4967 13.7233 10.9917 13.9666 11.2884 14.1866C11.7867 14.555 12.0884 15.1183 12.2484 15.43C12.4451 15.8183 12.6384 16.28 12.8184 16.7266C13.0134 17.2083 13.2917 17.6683 13.6384 18.0983C13.8451 18.3533 14.0151 18.5683 14.1701 18.7633L14.4867 19.1616C14.6738 18.8905 14.7886 18.5762 14.8201 18.2483L15.1467 14.61C15.3167 12.705 15.6667 10.5933 16.4534 8.68995C17.2467 6.77162 18.5217 4.96995 20.5834 3.86995C20.9501 3.67495 21.6184 3.35662 22.3517 3.42995C22.8034 3.47495 23.3451 3.67995 23.7384 4.18995ZM20.9384 7.72995C20.3617 8.32329 19.9017 9.07329 19.5351 9.96329C18.9334 11.42 18.6234 13.1516 18.4651 14.9066L18.1401 18.545C18.0734 19.2883 17.8484 20.0083 17.4817 20.6583C17.0151 21.4883 16.2434 22.2583 15.2184 22.5433C14.0651 22.8633 12.8934 22.4733 12.0901 21.4966C11.9267 21.2966 11.7284 21.0483 11.5251 20.7933L11.0467 20.1933C10.8217 19.9126 10.6119 19.6199 10.4184 19.3166C10.1398 20.7139 9.99967 22.1352 10.0001 23.56V25C10.0001 26.2 10.3034 27.3416 10.8601 28.3816C12.3801 31.2166 15.8301 33.3333 20.0001 33.3333C25.7734 33.3333 30.0001 29.37 30.0001 25C30.0001 24.185 29.8601 23.4 29.6001 22.6583C29.1334 21.3416 28.0751 20.3333 26.6667 18.9983L26.3417 18.6866C26.0006 18.3633 25.6506 18.0205 25.2917 17.6583C22.5534 14.8916 21.2884 11.3583 20.9384 7.72995Z" fill="white"/>
    <path fill-rule="evenodd" clip-rule="evenodd" d="M21.7882 25.5851L23.3482 27.8617L23.3732 27.8951C24.3499 29.2467 23.9966 31.1534 22.6416 32.0484C22.1979 32.3444 21.6765 32.5023 21.1432 32.5023C20.6099 32.5023 20.0886 32.3444 19.6449 32.0484M21.7882 25.5851L21.7432 25.6734L21.7132 25.7317C21.2154 26.7156 20.4784 27.5586 19.5699 28.1834L19.3316 28.3467C18.8382 28.6867 18.6182 28.9384 18.5316 29.1384C18.2866 29.6951 18.2849 30.1951 18.4399 30.6384C18.5999 31.0951 18.9699 31.6017 19.6449 32.0484M18.9082 23.8767C18.9649 23.6401 19.0132 23.3334 19.0716 22.9717C19.1049 22.7495 19.1438 22.5095 19.1882 22.2517C19.2382 21.9751 19.3049 21.6151 19.3999 21.3284C19.4249 21.2484 19.4649 21.1417 19.5199 21.0267C19.5649 20.9317 19.6732 20.7201 19.8749 20.5151C20.0526 20.3333 20.2685 20.1935 20.507 20.1056C20.7454 20.0177 21.0005 19.984 21.2536 20.007C21.5067 20.03 21.7515 20.109 21.9703 20.2384C22.189 20.3678 22.3762 20.5443 22.5182 20.7551L26.0866 25.9601C28.1449 28.8267 27.4299 32.8801 24.4782 34.8301C23.4896 35.4858 22.3296 35.8356 21.1432 35.8356C19.9569 35.8356 18.7969 35.4858 17.8082 34.8301C16.6316 34.0534 15.7349 32.9967 15.2932 31.7384C14.8466 30.4651 14.9099 29.0917 15.4766 27.8001C15.9449 26.7334 16.7966 26.0451 17.4432 25.6001L17.6816 25.4367C18.1299 25.1284 18.4932 24.7117 18.7382 24.2267L18.8266 24.0551L18.8816 23.9384L18.9082 23.8767Z" fill="white"/>
</svg>
