<svg width="24" height="25" viewBox="0 0 24 25" fill="none"  xmlns="http://www.w3.org/2000/svg">
    <path d="M19.071 13.642L13.414 19.3C13.0389 19.675 12.5303 19.8856 12 19.8856C11.4696 19.8856 10.961 19.675 10.586 19.3L4.92896 13.643C4.46133 13.1795 4.08986 12.6281 3.83589 12.0206C3.58191 11.4131 3.45043 10.7614 3.44899 10.103C3.44754 9.44454 3.57617 8.79229 3.82748 8.18368C4.0788 7.57508 4.44785 7.0221 4.91344 6.55651C5.37904 6.09091 5.93201 5.72186 6.54062 5.47055C7.14922 5.21924 7.80147 5.09061 8.45992 5.09205C9.11837 5.09349 9.77006 5.22498 10.3776 5.47895C10.9851 5.73293 11.5364 6.10439 12 6.57202C12.9415 5.6539 14.2069 5.14369 15.522 5.15193C16.8371 5.16017 18.096 5.68619 19.0259 6.61605C19.9559 7.5459 20.4821 8.80472 20.4906 10.1198C20.499 11.4349 19.989 12.7003 19.071 13.642Z"  stroke-linecap="round" stroke-linejoin="round"/>
</svg>
