<svg xmlns="http://www.w3.org/2000/svg" width="27" height="27" viewBox="0 0 27 27" fill="none">
    <path d="M14.5 26.3333C12.86 26.3333 11.31 26.0181 9.85 25.3877C8.39 24.7573 7.1152 23.8973 6.0256 22.8077C4.936 21.7181 4.076 20.4433 3.4456 18.9833C2.8152 17.5233 2.5 15.9733 2.5 14.3333C2.5 12.6733 2.8152 11.1185 3.4456 9.66891C4.076 8.21931 4.936 6.94931 6.0256 5.85891C7.1152 4.76851 8.39 3.90851 9.85 3.27891C11.31 2.64931 12.86 2.33411 14.5 2.33331C16.16 2.33331 17.7152 2.64851 19.1656 3.27891C20.616 3.90931 21.8856 4.76931 22.9744 5.85891C24.0632 6.94851 24.9232 8.21851 25.5544 9.66891C26.1856 11.1193 26.5008 12.6741 26.5 14.3333C26.5 15.9733 26.1848 17.5233 25.5544 18.9833C24.924 20.4433 24.064 21.7185 22.9744 22.8089C21.8848 23.8993 20.6148 24.7593 19.1644 25.3889C17.714 26.0185 16.1592 26.3333 14.5 26.3333ZM14.5 23.8733C15.02 23.1533 15.47 22.4033 15.85 21.6233C16.23 20.8433 16.54 20.0133 16.78 19.1333H12.22C12.46 20.0133 12.77 20.8433 13.15 21.6233C13.53 22.4033 13.98 23.1533 14.5 23.8733ZM11.38 23.3933C11.02 22.7333 10.7052 22.0481 10.4356 21.3377C10.166 20.6273 9.9408 19.8925 9.76 19.1333H6.22C6.8 20.1333 7.5252 21.0033 8.3956 21.7433C9.266 22.4833 10.2608 23.0333 11.38 23.3933ZM17.62 23.3933C18.74 23.0333 19.7352 22.4833 20.6056 21.7433C21.476 21.0033 22.2008 20.1333 22.78 19.1333H19.24C19.06 19.8933 18.8352 20.6285 18.5656 21.3389C18.296 22.0493 17.9808 22.7341 17.62 23.3933ZM5.2 16.7333H9.28C9.22 16.3333 9.1752 15.9385 9.1456 15.5489C9.116 15.1593 9.1008 14.7541 9.1 14.3333C9.0992 13.9125 9.1144 13.5077 9.1456 13.1189C9.1768 12.7301 9.2216 12.3349 9.28 11.9333H5.2C5.1 12.3333 5.0252 12.7285 4.9756 13.1189C4.926 13.5093 4.9008 13.9141 4.9 14.3333C4.8992 14.7525 4.9244 15.1577 4.9756 15.5489C5.0268 15.9401 5.1016 16.3349 5.2 16.7333ZM11.68 16.7333H17.32C17.38 16.3333 17.4252 15.9385 17.4556 15.5489C17.486 15.1593 17.5008 14.7541 17.5 14.3333C17.4992 13.9125 17.484 13.5077 17.4544 13.1189C17.4248 12.7301 17.38 12.3349 17.32 11.9333H11.68C11.62 12.3333 11.5752 12.7285 11.5456 13.1189C11.516 13.5093 11.5008 13.9141 11.5 14.3333C11.4992 14.7525 11.5144 15.1577 11.5456 15.5489C11.5768 15.9401 11.6216 16.3349 11.68 16.7333ZM19.72 16.7333H23.8C23.9 16.3333 23.9752 15.9385 24.0256 15.5489C24.076 15.1593 24.1008 14.7541 24.1 14.3333C24.0992 13.9125 24.0744 13.5077 24.0256 13.1189C23.9768 12.7301 23.9016 12.3349 23.8 11.9333H19.72C19.78 12.3333 19.8252 12.7285 19.8556 13.1189C19.886 13.5093 19.9008 13.9141 19.9 14.3333C19.8992 14.7525 19.884 15.1577 19.8544 15.5489C19.8248 15.9401 19.78 16.3349 19.72 16.7333ZM19.24 9.53331H22.78C22.2 8.53331 21.4752 7.66331 20.6056 6.92331C19.736 6.18331 18.7408 5.63331 17.62 5.27331C17.98 5.93331 18.2952 6.61851 18.5656 7.32891C18.836 8.03931 19.0608 8.77411 19.24 9.53331ZM12.22 9.53331H16.78C16.54 8.65331 16.23 7.82331 15.85 7.04331C15.47 6.26331 15.02 5.51331 14.5 4.79331C13.98 5.51331 13.53 6.26331 13.15 7.04331C12.77 7.82331 12.46 8.65331 12.22 9.53331ZM6.22 9.53331H9.76C9.94 8.77331 10.1652 8.03811 10.4356 7.32771C10.706 6.61731 11.0208 5.93251 11.38 5.27331C10.26 5.63331 9.2648 6.18331 8.3944 6.92331C7.524 7.66331 6.7992 8.53331 6.22 9.53331Z" fill="#F4F4F5"/>
</svg>