<svg width="40" height="40" viewBox="0 0 40 40" xmlns="http://www.w3.org/2000/svg">
    <path d="M36.4667 3.58325L34.4667 4.24992C31.0391 5.44083 27.3788 5.80628 23.7834 5.31659C20.0053 4.73027 16.1382 5.25128 12.65 6.81659C10.8008 7.604 9.17796 8.84144 7.92916 10.4163C6.68036 11.9911 5.84531 13.8533 5.50003 15.8333C5.14881 17.7373 5.18474 19.6927 5.60567 21.5826C6.02661 23.4725 6.82392 25.2582 7.95003 26.8333C7.85003 27.1833 7.75003 27.5333 7.6667 27.8833C6.98977 30.7616 6.65413 33.7097 6.6667 36.6666H10C10.1584 34.2465 10.487 31.8405 10.9834 29.4666C13.2958 30.7153 15.889 31.3521 18.5167 31.3166C20.9675 31.3149 23.3931 30.8219 25.65 29.8666C38.3334 24.4499 36.6667 6.43325 36.6667 5.68325L36.4667 3.58325ZM24.35 26.7999C20 28.6499 14.8 28.3333 11.8834 26.0499C12.3764 24.4017 13.0529 22.814 13.9 21.3166C14.559 20.2392 15.3361 19.2386 16.2167 18.3333C17.1169 17.4186 18.1307 16.6232 19.2334 15.9666C21.5118 14.6042 24.0387 13.709 26.6667 13.3333V11.6666C23.6428 11.56 20.6372 12.1771 17.9 13.4666C15.1017 14.8339 12.728 16.9368 11.0334 19.5499C10.405 20.5482 9.84803 21.5897 9.3667 22.6666C8.59424 20.6905 8.37527 18.5412 8.73337 16.4499C8.96799 14.9858 9.57153 13.6055 10.4871 12.4392C11.4027 11.2728 12.6002 10.3588 13.9667 9.78325C15.9589 8.85026 18.1336 8.37205 20.3334 8.38325C21.3667 8.38325 22.3834 8.48325 23.45 8.56658C26.7906 8.99759 30.1823 8.79974 33.45 7.98325C33.3334 12.5833 32.5 23.3333 24.35 26.7999Z" />
</svg>
