<svg width="40" height="40" viewBox="0 0 40 40" fill="none" xmlns="http://www.w3.org/2000/svg">
    <path d="M30.0001 13.3334H28.3334V10.0001C28.3334 5.40008 24.6001 1.66675 20.0001 1.66675C15.4001 1.66675 11.6667 5.40008 11.6667 10.0001V13.3334H10.0001C8.16675 13.3334 6.66675 14.8334 6.66675 16.6667V33.3334C6.66675 35.1667 8.16675 36.6667 10.0001 36.6667H30.0001C31.8334 36.6667 33.3334 35.1667 33.3334 33.3334V16.6667C33.3334 14.8334 31.8334 13.3334 30.0001 13.3334ZM15.0001 10.0001C15.0001 7.23341 17.2334 5.00008 20.0001 5.00008C22.7667 5.00008 25.0001 7.23341 25.0001 10.0001V13.3334H15.0001V10.0001ZM30.0001 33.3334H10.0001V16.6667H30.0001V33.3334ZM20.0001 28.3334C21.8334 28.3334 23.3334 26.8334 23.3334 25.0001C23.3334 23.1667 21.8334 21.6667 20.0001 21.6667C18.1667 21.6667 16.6667 23.1667 16.6667 25.0001C16.6667 26.8334 18.1667 28.3334 20.0001 28.3334Z" fill="#F4F4F5"/>
</svg>
