<svg xmlns="http://www.w3.org/2000/svg" width="27" height="27" viewBox="0 0 27 27" fill="none">
    <path fill-rule="evenodd" clip-rule="evenodd" d="M26.9286 4.87978L26.2204 6.9284C25.93 7.66254 25.6371 8.39553 25.3417 9.12734C24.5278 11.0127 23.4066 13.2168 22.0681 14.7381C20.7885 16.1893 18.8582 17.5279 17.3121 18.4777C17.5155 19.5308 17.4728 20.6221 17.1878 21.653C16.9027 22.6839 16.3844 23.622 15.6795 24.3825C12.9545 27.3239 9.91024 27.3239 7.64624 26.5983C5.92963 26.0463 4.51793 25.046 3.16865 23.815C3.11319 23.7646 3.06918 23.7012 3.04001 23.6297C3.01085 23.5581 2.99731 23.4802 3.00044 23.4021C3.00357 23.3239 3.02329 23.2476 3.05808 23.179C3.09286 23.1104 3.14178 23.0514 3.20107 23.0064L3.80128 22.5373C4.60796 21.8804 5.39184 21.0783 5.58991 20.0041C5.72756 18.8051 5.80639 18.1516 5.82639 18.0436C5.99205 17.1508 6.34258 16.1375 7.19248 15.2188C7.89694 14.4581 8.76576 13.8987 9.72057 13.591C10.6754 13.2834 11.6861 13.2371 12.6616 13.4565C13.5415 11.7889 14.7816 9.70525 16.126 8.32525C17.5353 6.87916 19.5773 5.66891 21.3239 4.79037L23.361 3.84056L25.2589 3.07735C25.4915 2.99081 25.742 2.97656 25.9818 3.03623C26.2215 3.0959 26.441 3.22709 26.615 3.41484C26.7891 3.60259 26.9108 3.83935 26.9662 4.09813C27.0217 4.35691 27.0087 4.6273 26.9286 4.87848V4.87978ZM14.88 14.4931C15.4532 14.9268 15.9516 15.4653 16.3529 16.0844C16.8235 15.7902 17.3073 15.4715 17.7814 15.1359L17.7454 15.049C17.5481 14.6008 17.28 14.193 16.9531 13.844C16.6643 13.532 16.3337 13.2686 15.9724 13.0626L15.7575 12.9512C15.4466 13.463 15.1525 13.9852 14.88 14.4931ZM23.8135 6.43989C23.3538 6.64592 22.8532 6.88046 22.337 7.13961C20.6468 7.99094 18.8966 9.05736 17.7802 10.2028C17.5838 10.407 17.3956 10.6202 17.216 10.8416C17.6506 11.1008 18.1547 11.4766 18.6505 12.013C19.1475 12.5482 19.4956 13.0924 19.7357 13.5615C19.9502 13.3593 20.1475 13.1563 20.3275 12.9525C21.3887 11.7474 22.3766 9.85815 23.1653 8.0324C23.4054 7.47522 23.6227 6.93618 23.8135 6.43989Z" fill="#F4F4F5"/>
</svg>