<svg xmlns="http://www.w3.org/2000/svg" width="27" height="23" viewBox="0 0 27 23" fill="none">
    <path d="M6.625 4.33331C5.53098 4.33331 4.48177 4.76791 3.70818 5.5415C2.9346 6.31508 2.5 7.3643 2.5 8.45831V10.3333H26.5V8.45831C26.5 7.3643 26.0654 6.31508 25.2918 5.5415C24.5182 4.76791 23.469 4.33331 22.375 4.33331H6.625ZM26.5 11.8333H2.5V18.2083C2.5 19.3023 2.9346 20.3515 3.70818 21.1251C4.48177 21.8987 5.53098 22.3333 6.625 22.3333H22.375C23.469 22.3333 24.5182 21.8987 25.2918 21.1251C26.0654 20.3515 26.5 19.3023 26.5 18.2083V11.8333ZM19.75 17.8333H22.75C22.9489 17.8333 23.1397 17.9123 23.2803 18.053C23.421 18.1936 23.5 18.3844 23.5 18.5833C23.5 18.7822 23.421 18.973 23.2803 19.1136C23.1397 19.2543 22.9489 19.3333 22.75 19.3333H19.75C19.5511 19.3333 19.3603 19.2543 19.2197 19.1136C19.079 18.973 19 18.7822 19 18.5833C19 18.3844 19.079 18.1936 19.2197 18.053C19.3603 17.9123 19.5511 17.8333 19.75 17.8333Z" fill="#F4F4F5"/>
</svg>