<svg width="40" height="40" viewBox="0 0 40 40"  xmlns="http://www.w3.org/2000/svg">
    <path d="M37.9688 15.9103H24.2274L20 2.89941L15.7726 15.9103H2.03125L13.1422 24.0058L8.88734 37.1005L20 29.0031L31.1127 37.1004L26.857 24.0057L37.9688 15.9103ZM31.2504 18.0984L26.1461 21.8168L24.9383 18.0984H31.2504ZM20 9.97715L21.9264 15.9076H18.0727L20 9.97715ZM8.74961 18.0984H15.0617L13.8547 21.8168L8.74961 18.0984ZM13.0541 31.3572L15.0019 25.3617L18.142 27.65L13.0541 31.3572ZM15.7135 23.1727L17.362 18.0984H22.6373L24.2856 23.1726L19.9991 26.2958L15.7135 23.1727ZM26.9425 31.3572L21.858 27.6499L24.9981 25.3616L26.9425 31.3572ZM23.9751 10.7042L23.1607 8.19699C26.8612 9.04418 30.0738 11.3263 32.0921 14.5415H29.4086C27.9903 12.7812 26.1083 11.4521 23.975 10.7042H23.9751ZM10.0781 29.01L9.26461 31.5138C7.94003 30.0037 6.94962 28.2307 6.35831 26.311C5.76701 24.3913 5.58817 22.3683 5.83352 20.3746L7.9182 21.893V22.1154C7.91453 24.5796 8.66857 26.9853 10.0781 29.0065V29.01ZM23.9144 33.5496L25.9956 35.0663C24.1166 35.9376 22.0703 36.389 19.9991 36.389C17.928 36.389 15.8816 35.9376 14.0027 35.0663L16.0839 33.5496C18.6218 34.418 21.3764 34.418 23.9144 33.5496ZM10.5913 14.5416H7.90789C9.92621 11.3264 13.1388 9.04426 16.8393 8.19707L16.0249 10.7042C13.8916 11.4521 12.0097 12.7812 10.5913 14.5416ZM34.2726 22.1162C34.2754 25.5736 33.0178 28.9134 30.7354 31.5104L29.9219 29.0066C31.3322 26.9859 32.0871 24.5804 32.0844 22.1162V21.8939L34.169 20.3746C34.2387 20.9525 34.2733 21.5341 34.2725 22.1162H34.2726Z" />
</svg>
