<svg xmlns="http://www.w3.org/2000/svg" width="25" height="25" viewBox="0 0 25 25" fill="none">
    <path fill-rule="evenodd" clip-rule="evenodd" d="M7.16667 6.16671C7.16667 4.75222 7.72857 3.39567 8.72876 2.39547C9.72896 1.39528 11.0855 0.833374 12.5 0.833374C13.9145 0.833374 15.271 1.39528 16.2712 2.39547C17.2714 3.39567 17.8333 4.75222 17.8333 6.16671C17.8333 7.5812 17.2714 8.93775 16.2712 9.93794C15.271 10.9381 13.9145 11.5 12.5 11.5C11.0855 11.5 9.72896 10.9381 8.72876 9.93794C7.72857 8.93775 7.16667 7.5812 7.16667 6.16671ZM7.16667 14.1667C5.39856 14.1667 3.70286 14.8691 2.45262 16.1193C1.20238 17.3696 0.5 19.0653 0.5 20.8334C0.5 21.8942 0.921428 22.9117 1.67157 23.6618C2.42172 24.4119 3.43913 24.8334 4.5 24.8334H20.5C21.5609 24.8334 22.5783 24.4119 23.3284 23.6618C24.0786 22.9117 24.5 21.8942 24.5 20.8334C24.5 19.0653 23.7976 17.3696 22.5474 16.1193C21.2971 14.8691 19.6014 14.1667 17.8333 14.1667H7.16667Z" fill="#F4F4F5"/>
</svg>