<svg width="40" height="40" viewBox="0 0 40 40" fill="none" xmlns="http://www.w3.org/2000/svg">
    <path d="M18.7083 17.5416C19.2917 17.5416 19.785 17.3399 20.1883 16.9366C20.5917 16.5333 20.7928 16.0405 20.7917 15.4583C20.7906 14.876 20.5894 14.3827 20.1883 13.9783C19.7872 13.5738 19.2939 13.3727 18.7083 13.3749C18.1228 13.3771 17.63 13.5788 17.23 13.9799C16.83 14.381 16.6283 14.8738 16.625 15.4583C16.6217 16.0427 16.8233 16.536 17.23 16.9383C17.6367 17.3405 18.1294 17.5416 18.7083 17.5416ZM34.25 36.6666C33.0833 36.6666 31.5139 36.1805 29.5417 35.2083C27.5694 34.236 25.4583 32.9166 23.2083 31.2499C22.6806 31.3888 22.1461 31.4933 21.605 31.5633C21.0639 31.6333 20.515 31.6677 19.9583 31.6666C16.7083 31.6666 13.9583 30.5416 11.7083 28.2916C9.45833 26.0416 8.33333 23.2916 8.33333 20.0416C8.33333 19.486 8.375 18.9305 8.45833 18.3749C8.54167 17.8194 8.65278 17.2777 8.79167 16.7499C7.15278 14.4999 5.84056 12.396 4.855 10.4383C3.86944 8.48048 3.37611 6.9177 3.375 5.74992C3.375 4.99992 3.58333 4.40992 4 3.97992C4.41667 3.54992 4.98611 3.33437 5.70833 3.33326C6.43056 3.33214 7.36833 3.58214 8.52167 4.08326C9.675 4.58437 11.265 5.43159 13.2917 6.62492C12.7083 6.93048 12.1667 7.24992 11.6667 7.58326C11.1667 7.91659 10.6806 8.2777 10.2083 8.66659C9.68056 8.36103 9.16667 8.09714 8.66667 7.87492C8.16667 7.6527 7.63889 7.41659 7.08333 7.16659C7.58333 8.22215 8.11833 9.24992 8.68833 10.2499C9.25833 11.2499 9.86222 12.236 10.5 13.2083C11.5556 11.7083 12.9028 10.5277 14.5417 9.66659C16.1806 8.80548 17.9861 8.37492 19.9583 8.37492C23.2083 8.37492 25.9656 9.50715 28.23 11.7716C30.4944 14.036 31.6261 16.7927 31.625 20.0416C31.625 22.0138 31.1872 23.8194 30.3117 25.4583C29.4361 27.0971 28.2489 28.4444 26.75 29.4999C27.7222 30.1388 28.7156 30.7499 29.73 31.3333C30.7444 31.9166 31.7789 32.4444 32.8333 32.9166C32.6111 32.3888 32.3822 31.8749 32.1467 31.3749C31.9111 30.8749 31.64 30.361 31.3333 29.8333C31.75 29.361 32.125 28.861 32.4583 28.3333C32.7917 27.8055 33.0972 27.2638 33.375 26.7083C34.6528 28.8749 35.5211 30.4933 35.98 31.5633C36.4389 32.6333 36.6678 33.5288 36.6667 34.2499C36.6667 35.0555 36.4444 35.6599 36 36.0633C35.5556 36.4666 34.9722 36.6677 34.25 36.6666ZM22.875 25.0416C23.3472 25.0416 23.7433 24.8816 24.0633 24.5616C24.3833 24.2416 24.5428 23.846 24.5417 23.3749C24.5406 22.9038 24.3811 22.5083 24.0633 22.1883C23.7456 21.8683 23.3494 21.7083 22.875 21.7083C22.4006 21.7083 22.005 21.8683 21.6883 22.1883C21.3717 22.5083 21.2117 22.9038 21.2083 23.3749C21.205 23.846 21.365 24.2421 21.6883 24.5633C22.0117 24.8844 22.4072 25.0438 22.875 25.0416ZM24.9583 19.2083C25.3194 19.2083 25.6183 19.0899 25.855 18.8533C26.0917 18.6166 26.2094 18.3183 26.2083 17.9583C26.2072 17.5983 26.0894 17.2999 25.855 17.0633C25.6206 16.8266 25.3217 16.7083 24.9583 16.7083C24.595 16.7083 24.2967 16.8266 24.0633 17.0633C23.83 17.2999 23.7117 17.5983 23.7083 17.9583C23.705 18.3183 23.8233 18.6171 24.0633 18.8549C24.3033 19.0927 24.6017 19.2105 24.9583 19.2083Z"/>
</svg>
