<svg width="40" height="40" viewBox="0 0 40 40" fill="none" xmlns="http://www.w3.org/2000/svg">
    <path d="M11.6667 5C11.6667 6.29371 11.968 7.56965 12.5465 8.72678C13.1251 9.88391 13.9651 10.8904 15.0001 11.6667C13.9651 12.4429 13.1251 13.4494 12.5465 14.6066C11.968 15.7637 11.6667 17.0396 11.6667 18.3333C11.6664 20.2544 12.3297 22.1166 13.5446 23.6048C14.7594 25.093 16.4511 26.1158 18.3334 26.5V30H15.0001V33.3333H18.3334V36.6667H21.6667V33.3333H25.0001V30H21.6667V26.5C23.549 26.1158 25.2407 25.093 26.4556 23.6048C27.6704 22.1166 28.3338 20.2544 28.3334 18.3333C28.3334 17.0396 28.0322 15.7637 27.4536 14.6066C26.8751 13.4494 26.035 12.4429 25.0001 11.6667C26.035 10.8904 26.8751 9.88391 27.4536 8.72678C28.0322 7.56965 28.3334 6.29371 28.3334 5H25.0001C25.0001 6.32608 24.4733 7.59785 23.5356 8.53553C22.5979 9.47322 21.3262 10 20.0001 10C18.674 10 17.4022 9.47322 16.4645 8.53553C15.5269 7.59785 15.0001 6.32608 15.0001 5M20.0001 13.3333C21.3262 13.3333 22.5979 13.8601 23.5356 14.7978C24.4733 15.7355 25.0001 17.0073 25.0001 18.3333C25.0001 19.6594 24.4733 20.9312 23.5356 21.8689C22.5979 22.8065 21.3262 23.3333 20.0001 23.3333C18.674 23.3333 17.4022 22.8065 16.4645 21.8689C15.5269 20.9312 15.0001 19.6594 15.0001 18.3333C15.0001 17.0073 15.5269 15.7355 16.4645 14.7978C17.4022 13.8601 18.674 13.3333 20.0001 13.3333Z" fill="#F4F4F5"/>
</svg>
