<svg width="40" height="40" viewBox="0 0 40 40" fill="none" xmlns="http://www.w3.org/2000/svg">
    <path d="M31.6666 8.33325L22.6666 17.3333M31.6666 8.33325H23.3333M31.6666 8.33325V16.6666M8.33325 23.3333C8.33325 25.5434 9.21123 27.663 10.774 29.2258C12.3368 30.7886 14.4564 31.6666 16.6666 31.6666C18.8767 31.6666 20.9963 30.7886 22.5591 29.2258C24.1219 27.663 24.9999 25.5434 24.9999 23.3333C24.9999 21.1231 24.1219 19.0035 22.5591 17.4407C20.9963 15.8779 18.8767 14.9999 16.6666 14.9999C14.4564 14.9999 12.3368 15.8779 10.774 17.4407C9.21123 19.0035 8.33325 21.1231 8.33325 23.3333Z" stroke="#F4F4F5" stroke-width="3.33333" stroke-linecap="round" stroke-linejoin="round"/>
</svg>
