<svg width="40" height="40" viewBox="0 0 40 40" xmlns="http://www.w3.org/2000/svg">
    <path fill-rule="evenodd" clip-rule="evenodd" d="M26.1275 16.107C26.1275 17.1629 25.8592 18.085 25.3238 18.8724C24.8824 19.5341 24.1425 20.2512 23.1022 21.0235C22.5035 21.4334 22.1092 21.8191 21.9205 22.1815C21.683 22.6228 21.5658 23.2841 21.5658 24.1666H18.2325C18.2325 22.8278 18.375 21.851 18.6586 21.2366C18.9891 20.4958 19.7061 19.7472 20.8087 18.9911C21.3293 18.5969 21.7074 18.1955 21.9438 17.786C22.227 17.3288 22.3695 16.8092 22.3695 16.2261C22.3695 15.2965 22.093 14.6038 21.5418 14.1461C21.1015 13.8158 20.5651 13.6504 19.9349 13.6504C18.9108 13.6504 18.17 13.9894 17.7133 14.6668C17.3824 15.1707 17.2165 15.8167 17.2165 16.6043V16.628H13.6726C13.6726 14.5638 14.3258 13.0044 15.6328 11.9485C16.7359 11.067 18.0995 10.625 19.7218 10.625C21.1406 10.625 22.3853 10.9011 23.4561 11.4522C25.2376 12.3665 26.1275 13.9188 26.1275 16.107ZM36.6666 20C36.6666 29.2047 29.2047 36.6666 19.9999 36.6666C10.7952 36.6666 3.33325 29.2047 3.33325 19.9999C3.33325 10.7951 10.7952 3.33325 19.9999 3.33325C29.2046 3.33325 36.6666 10.7951 36.6666 19.9999M33.3333 19.9999C33.3333 12.6478 27.3519 6.66653 19.9999 6.66653C12.6479 6.66653 6.66661 12.6479 6.66661 19.9999C6.66661 27.3519 12.6479 33.3333 19.9999 33.3333C27.3519 33.3333 33.3333 27.3519 33.3333 19.9999ZM19.9998 25.4165C18.8492 25.4165 17.9165 26.3492 17.9165 27.4998C17.9165 28.6504 18.8493 29.5832 19.9998 29.5832C21.1504 29.5832 22.0832 28.6504 22.0832 27.4998C22.0832 26.3492 21.1504 25.4165 19.9998 25.4165Z" />
</svg>
