<svg width="40" height="40" viewBox="0 0 40 40" fill="none" xmlns="http://www.w3.org/2000/svg">
    <path d="M10.5984 13.0132L13.255 12.1999C13.4644 12.1359 13.6843 12.1137 13.9022 12.1347C14.1201 12.1556 14.3318 12.2193 14.5251 12.3221C14.7184 12.4249 14.8895 12.5647 15.0288 12.7336C15.168 12.9025 15.2727 13.0972 15.3367 13.3066C15.4007 13.5159 15.4229 13.7358 15.4019 13.9537C15.3809 14.1716 15.3173 14.3833 15.2145 14.5766C15.1117 14.7699 14.9719 14.9411 14.803 15.0803C14.6341 15.2196 14.4394 15.3242 14.23 15.3882L7.85503 17.3382C7.64557 17.4023 7.42555 17.4244 7.20754 17.4033C6.98953 17.3823 6.7778 17.3185 6.58447 17.2155C6.39114 17.1126 6.21999 16.9726 6.08082 16.8034C5.94164 16.6343 5.83717 16.4394 5.77336 16.2299L3.82336 9.85489C3.75934 9.64554 3.73718 9.42563 3.75815 9.20772C3.77912 8.9898 3.8428 8.77816 3.94557 8.58485C4.04833 8.39155 4.18816 8.22039 4.35708 8.08113C4.52599 7.94187 4.72068 7.83724 4.93003 7.77322C5.35283 7.64393 5.80967 7.68788 6.20006 7.89543C6.59045 8.10297 6.8824 8.45709 7.0117 8.87989L7.74503 11.2816C11.7584 5.09989 19.72 2.44155 26.7884 5.33822C28.9023 6.20456 30.8006 7.52366 32.3498 9.2027C33.8989 10.8817 35.0613 12.8799 35.755 15.0566C35.8261 15.2662 35.8548 15.488 35.8393 15.7088C35.8237 15.9297 35.7644 16.1453 35.6646 16.3429C35.5648 16.5406 35.4267 16.7164 35.2582 16.8601C35.0898 17.0037 34.8944 17.1124 34.6834 17.1797C34.4725 17.247 34.2503 17.2717 34.0297 17.2521C33.8092 17.2326 33.5948 17.1693 33.3989 17.066C33.2031 16.9627 33.0298 16.8214 32.8892 16.6504C32.7486 16.4793 32.6435 16.282 32.58 16.0699C31.8759 13.8588 30.5608 11.892 28.7865 10.3966C27.0122 8.90107 24.8512 7.93792 22.5528 7.6183C20.2545 7.29868 17.9126 7.63563 15.7976 8.59024C13.6826 9.54485 11.8791 11.0782 10.5984 13.0132ZM31.1434 26.6716L28.185 27.4099C27.9708 27.4686 27.747 27.484 27.5268 27.455C27.3066 27.426 27.0944 27.3533 26.9027 27.2411C26.7109 27.129 26.5436 26.9796 26.4104 26.8019C26.2772 26.6241 26.1809 26.4215 26.1272 26.206C26.0734 25.9905 26.0632 25.7664 26.0973 25.5469C26.1314 25.3274 26.209 25.117 26.3255 24.9279C26.4421 24.7388 26.5953 24.575 26.7761 24.4459C26.9569 24.3169 27.1617 24.2253 27.3784 24.1766L33.45 22.6616C33.7665 22.5114 34.1222 22.4647 34.4667 22.5282C34.7986 22.5719 35.1097 22.7145 35.3594 22.9374C35.6091 23.1604 35.7859 23.4534 35.8667 23.7782L37.48 30.2449C37.5756 30.6696 37.5012 31.1149 37.2727 31.4854C37.0443 31.856 36.6799 32.1225 36.2575 32.2279C35.8351 32.3333 35.3882 32.2692 35.0124 32.0494C34.6367 31.8295 34.3618 31.4714 34.2467 31.0516L33.6967 28.8482C32.092 31.1575 29.8941 32.9912 27.3347 34.1563C24.7753 35.3213 21.949 35.7744 19.1536 35.468C16.3583 35.1616 13.6973 34.1069 11.451 32.4151C9.20477 30.7233 7.45638 28.457 6.39003 25.8549L5.95669 24.7982C5.87374 24.5957 5.8315 24.3787 5.83238 24.1598C5.83326 23.941 5.87725 23.7244 5.96183 23.5225C6.04641 23.3206 6.16992 23.1374 6.32532 22.9832C6.48072 22.829 6.66496 22.707 6.86753 22.6241C7.27662 22.4565 7.73552 22.4584 8.14325 22.6292C8.34514 22.7138 8.5284 22.8373 8.68255 22.9927C8.83671 23.1481 8.95874 23.3323 9.04169 23.5349L9.47503 24.5899C10.3246 26.6629 11.7242 28.4646 13.5227 29.8005C15.3212 31.1363 17.4504 31.9557 19.6805 32.1701C21.9106 32.3845 24.1569 31.9859 26.177 31.0171C28.1972 30.0484 29.9144 28.5447 31.1434 26.6716Z" fill="#F4F4F5"/>
</svg>
