<svg width="40" height="40" viewBox="0 0 40 40" fill="none" xmlns="http://www.w3.org/2000/svg">
    <path d="M21.0865 1.54071C19.3221 1.52665 17.5655 2.31274 16.5308 3.74274C16.273 4.09899 16.1507 4.46274 16.0108 4.84626C17.981 3.35548 21.0827 3.20017 23.6841 4.67048C24.6438 5.21298 25.4771 5.86712 26.0302 6.64079C26.2546 4.94001 25.4698 3.20907 23.7622 2.24392C22.9357 1.77657 22.0107 1.54806 21.0865 1.54079V1.54071ZM8.93068 3.54985C5.73693 3.95173 4.04833 7.00345 6.83357 9.89985C11.9363 15.2067 17.8126 4.84493 24.5876 8.26181C20.3577 1.65142 15.5585 8.62353 10.1977 8.02743C8.28755 7.81517 7.04849 5.47454 8.93068 3.54985ZM3.39849 6.98009C0.683802 12.4152 7.85208 18.1721 13.7672 13.3473C9.63599 14.1121 3.24576 12.2642 3.39849 6.98009ZM21.3355 9.45321C20.8721 9.4629 20.4496 9.53118 20.0025 9.59485C23.5255 10.6736 26.3411 13.6425 26.7091 17.0655C26.8447 18.3281 26.7339 19.534 26.238 20.5299C28.5464 19.7631 30.039 17.982 29.7974 15.735C29.4576 12.5706 25.8618 9.75587 21.8141 9.46548C21.6549 9.45401 21.4952 9.44986 21.3355 9.45321ZM19.5754 11.3356C15.9297 11.3298 13.4858 18.2417 8.5938 17.1852C13.0079 21.5238 15.2363 14.9052 19.336 14.197C20.7968 13.9444 22.1672 15.5371 21.1378 17.4879C23.4348 16.4617 24.1039 13.6534 21.4771 11.9582C20.8003 11.5213 20.1718 11.3365 19.5752 11.3356H19.5754ZM24.6777 15.9156C24.2849 17.9622 22.5816 19.4639 20.3613 19.4653C19.5423 19.4661 18.7398 19.3216 18.0396 18.9599C18.7524 20.3953 20.0586 21.4052 21.5161 21.4038C23.5689 21.4017 25.0977 19.4238 24.9244 17.0117C24.8962 16.6174 24.7874 16.2787 24.6779 15.9156L24.6777 15.9156ZM31.1377 18.1813C28.8662 23.4141 22.0575 24.3195 17.1315 21.8286C18.4436 26.7015 23.7183 27.6789 27.461 25.5786C26.9318 27.3809 25.6144 29.3381 23.186 30.8692C28.8217 29.8377 32.0115 23.5382 31.1378 18.1812L31.1377 18.1813ZM14.7315 20.4249C14.63 20.6754 14.5396 20.9304 14.4605 21.1889C11.2045 25.9661 12.2833 32.509 16.9727 35.9741C21.7751 39.5225 28.5536 38.5059 32.1021 33.7036C34.7526 30.1166 34.8558 25.4264 32.7369 21.8042C33.0459 25.5138 29.3842 31.6384 25.0001 32.5342C20.8304 33.3861 16.4362 31.1985 14.9561 26.7895C16.7547 29.9536 20.994 31.2024 23.8649 28.4669C18.8586 30.1647 15.2136 24.5985 14.7315 20.4249Z" fill="#F4F4F5"/>
</svg>
