<svg width="25" height="25" viewBox="0 0 25 25"  xmlns="http://www.w3.org/2000/svg">
    <path d="M12.825 20.5C12.375 20.5 11.9877 20.35 11.663 20.05C11.3383 19.75 11.1423 19.3833 11.075 18.95L10.85 17.3C10.6333 17.2167 10.4293 17.1167 10.238 17C10.0467 16.8833 9.859 16.7583 9.675 16.625L8.125 17.275C7.70834 17.4583 7.29167 17.475 6.875 17.325C6.45834 17.175 6.13334 16.9083 5.9 16.525L4.725 14.475C4.49167 14.0917 4.425 13.6833 4.525 13.25C4.625 12.8167 4.85 12.4583 5.2 12.175L6.525 11.175C6.50834 11.0583 6.5 10.9457 6.5 10.837V10.162C6.5 10.054 6.50834 9.94167 6.525 9.825L5.2 8.825C4.85 8.54167 4.625 8.18333 4.525 7.75C4.425 7.31667 4.49167 6.90833 4.725 6.525L5.9 4.475C6.13334 4.09167 6.45834 3.825 6.875 3.675C7.29167 3.525 7.70834 3.54167 8.125 3.725L9.675 4.375C9.85834 4.24167 10.05 4.11667 10.25 4C10.45 3.88333 10.65 3.78333 10.85 3.7L11.075 2.05C11.1417 1.61667 11.3377 1.25 11.663 0.95C11.9883 0.65 12.3757 0.5 12.825 0.5H15.175C15.625 0.5 16.0127 0.65 16.338 0.95C16.6633 1.25 16.859 1.61667 16.925 2.05L17.15 3.7C17.3667 3.78333 17.571 3.88333 17.763 4C17.955 4.11667 18.1423 4.24167 18.325 4.375L19.875 3.725C20.2917 3.54167 20.7083 3.525 21.125 3.675C21.5417 3.825 21.8667 4.09167 22.1 4.475L23.275 6.525C23.5083 6.90833 23.575 7.31667 23.475 7.75C23.375 8.18333 23.15 8.54167 22.8 8.825L21.475 9.825C21.4917 9.94167 21.5 10.0543 21.5 10.163V10.837C21.5 10.9457 21.4833 11.0583 21.45 11.175L22.775 12.175C23.125 12.4583 23.35 12.8167 23.45 13.25C23.55 13.6833 23.4833 14.0917 23.25 14.475L22.05 16.525C21.8167 16.9083 21.4917 17.175 21.075 17.325C20.6583 17.475 20.2417 17.4583 19.825 17.275L18.325 16.625C18.1417 16.7583 17.95 16.8833 17.75 17C17.55 17.1167 17.35 17.2167 17.15 17.3L16.925 18.95C16.8583 19.3833 16.6627 19.75 16.338 20.05C16.0133 20.35 15.6257 20.5 15.175 20.5H12.825ZM14.05 14C15.0167 14 15.8417 13.6583 16.525 12.975C17.2083 12.2917 17.55 11.4667 17.55 10.5C17.55 9.53333 17.2083 8.70833 16.525 8.025C15.8417 7.34167 15.0167 7 14.05 7C13.0667 7 12.2373 7.34167 11.562 8.025C10.8867 8.70833 10.5493 9.53333 10.55 10.5C10.5507 11.4667 10.8883 12.2917 11.563 12.975C12.2377 13.6583 13.0667 14 14.05 14Z" fill="#F4F4F5"/>
</svg>
