<svg xmlns="http://www.w3.org/2000/svg" width="22" height="24" viewBox="0 0 22 24" fill="none">
    <path d="M17.9091 7.71402H11.7045V15.482C11.7045 15.7093 11.604 15.9274 11.425 16.0881C11.246 16.2489 11.0032 16.3392 10.75 16.3392C10.4968 16.3392 10.254 16.2489 10.075 16.0881C9.89602 15.9274 9.79545 15.7093 9.79545 15.482V7.71402H3.59091C2.70514 7.71487 1.85591 8.03122 1.22958 8.59365C0.60324 9.15608 0.250948 9.91866 0.25 10.7141V21C0.250948 21.7954 0.60324 22.5579 1.22958 23.1204C1.85591 23.6828 2.70514 23.9991 3.59091 24H17.9091C18.7949 23.9991 19.6441 23.6828 20.2704 23.1204C20.8968 22.5579 21.2491 21.7954 21.25 21V10.7141C21.2491 9.91866 20.8968 9.15608 20.2704 8.59365C19.6441 8.03122 18.7949 7.71487 17.9091 7.71402ZM11.7045 2.92626L14.848 5.74845C15.0285 5.90241 15.2688 5.98698 15.5177 5.98411C15.7666 5.98125 16.0044 5.89119 16.1804 5.73313C16.3564 5.57507 16.4567 5.36151 16.4599 5.138C16.4631 4.91449 16.3689 4.6987 16.1975 4.53664L11.4247 0.250857C11.2458 0.0902302 11.0031 0 10.75 0C10.4969 0 10.2542 0.0902302 10.0753 0.250857L5.30253 4.53664C5.13107 4.6987 5.0369 4.91449 5.04009 5.138C5.04327 5.36151 5.14357 5.57507 5.31959 5.73313C5.49561 5.89119 5.73342 5.98125 5.98233 5.98411C6.23124 5.98698 6.47155 5.90241 6.65202 5.74845L9.79545 2.92626V7.71402H11.7045V2.92626Z" fill="#F4F4F5"/>
</svg>