<svg width="40" height="40" viewBox="0 0 40 40"  xmlns="http://www.w3.org/2000/svg">
    <path d="M31.3984 34.4932L26.2984 29.4033L22.6318 33.0699L22.1701 32.6099C21.659 32.0988 21.4034 31.4671 21.4034 30.7149C21.4034 29.9627 21.659 29.331 22.1701 28.8199L28.9868 22.0033C29.4979 21.4921 30.1295 21.2366 30.8818 21.2366C31.634 21.2366 32.2657 21.4921 32.7768 22.0033L33.2368 22.4649L29.5701 26.1316L34.6601 31.2316C34.9301 31.5005 35.0651 31.8144 35.0651 32.1733C35.0651 32.5321 34.9301 32.846 34.6601 33.1149L33.2818 34.4932C33.0129 34.7621 32.699 34.8966 32.3401 34.8966C31.9812 34.8966 31.6673 34.7621 31.3984 34.4932ZM35.0001 9.12825L16.5968 27.5633L17.8301 28.7883C18.3412 29.2994 18.5968 29.931 18.5968 30.6833C18.5968 31.4355 18.3412 32.0666 17.8301 32.5766L17.3684 33.0383L13.7018 29.3716L8.60177 34.4616C8.33288 34.7305 8.01899 34.8649 7.6601 34.8649C7.30121 34.8649 6.98732 34.7305 6.71843 34.4616L5.3401 33.0833C5.07121 32.8144 4.93677 32.5005 4.93677 32.1416C4.93677 31.7827 5.07121 31.4683 5.3401 31.1983L10.4301 26.0983L6.76343 22.4316L7.2251 21.9716C7.73621 21.4605 8.36732 21.2049 9.11843 21.2049C9.87066 21.2049 10.5023 21.4605 11.0134 21.9716L12.2701 23.2383L30.7051 4.83325H35.0001V9.12825ZM12.7368 16.8983L5.0001 9.12825V4.83325H9.2951L17.0001 12.5699L12.7368 16.8983Z" />
</svg>