<svg width="40" height="40" viewBox="0 0 40 40" fill="none" xmlns="http://www.w3.org/2000/svg">
    <path d="M30.0001 33.3334V16.6667H10.0001V33.3334H30.0001ZM30.0001 13.3334C30.8841 13.3334 31.732 13.6846 32.3571 14.3097C32.9822 14.9348 33.3334 15.7827 33.3334 16.6667V33.3334C33.3334 34.2175 32.9822 35.0653 32.3571 35.6904C31.732 36.3156 30.8841 36.6667 30.0001 36.6667H10.0001C9.11603 36.6667 8.26818 36.3156 7.64306 35.6904C7.01794 35.0653 6.66675 34.2175 6.66675 33.3334V16.6667C6.66675 15.7827 7.01794 14.9348 7.64306 14.3097C8.26818 13.6846 9.11603 13.3334 10.0001 13.3334H25.0001V10.0001C25.0001 8.674 24.4733 7.40223 23.5356 6.46455C22.5979 5.52687 21.3262 5.00008 20.0001 5.00008C18.674 5.00008 17.4022 5.52687 16.4645 6.46455C15.5269 7.40223 15.0001 8.674 15.0001 10.0001H11.6667C11.6667 7.78994 12.5447 5.67033 14.1075 4.10752C15.6703 2.54472 17.7899 1.66675 20.0001 1.66675C21.0944 1.66675 22.1781 1.8823 23.1891 2.30109C24.2002 2.71987 25.1188 3.3337 25.8926 4.10752C26.6665 4.88135 27.2803 5.80001 27.6991 6.81105C28.1179 7.8221 28.3334 8.90573 28.3334 10.0001V13.3334H30.0001ZM20.0001 28.3334C19.116 28.3334 18.2682 27.9822 17.6431 27.3571C17.0179 26.732 16.6667 25.8841 16.6667 25.0001C16.6667 24.116 17.0179 23.2682 17.6431 22.6431C18.2682 22.0179 19.116 21.6667 20.0001 21.6667C20.8841 21.6667 21.732 22.0179 22.3571 22.6431C22.9822 23.2682 23.3334 24.116 23.3334 25.0001C23.3334 25.8841 22.9822 26.732 22.3571 27.3571C21.732 27.9822 20.8841 28.3334 20.0001 28.3334Z" fill="#F4F4F5"/>
</svg>
