<svg width="40" height="40" viewBox="0 0 40 40" fill="none" xmlns="http://www.w3.org/2000/svg">
    <path fill-rule="evenodd" clip-rule="evenodd" d="M18.8217 13.8217C19.1343 13.5093 19.5581 13.3337 20.0001 13.3337C20.442 13.3337 20.8658 13.5093 21.1784 13.8217L30.6067 23.2501C30.9103 23.5644 31.0783 23.9854 31.0745 24.4224C31.0707 24.8594 30.8954 25.2774 30.5864 25.5864C30.2774 25.8954 29.8594 26.0707 29.4224 26.0745C28.9854 26.0783 28.5644 25.9103 28.2501 25.6067L20.0001 17.3567L11.7501 25.6067C11.4357 25.9103 11.0147 26.0783 10.5777 26.0745C10.1407 26.0707 9.72271 25.8954 9.41369 25.5864C9.10468 25.2774 8.9294 24.8594 8.9256 24.4224C8.9218 23.9854 9.08979 23.5644 9.39339 23.2501L18.8217 13.8217Z" fill="#F4F4F5"/>
</svg>
