<svg width="40" height="40" viewBox="0 0 40 40"  xmlns="http://www.w3.org/2000/svg">
    <path d="M29.1667 15.0001C28.0616 15.0001 27.0018 14.5611 26.2204 13.7797C25.439 12.9983 25 11.9385 25 10.8334C25 9.72835 25.439 8.66854 26.2204 7.88714C27.0018 7.10573 28.0616 6.66675 29.1667 6.66675C30.2718 6.66675 31.3316 7.10573 32.113 7.88714C32.8944 8.66854 33.3334 9.72835 33.3334 10.8334C33.3334 11.9385 32.8944 12.9983 32.113 13.7797C31.3316 14.5611 30.2718 15.0001 29.1667 15.0001ZM24.05 13.5834L3.33337 34.3167L5.68337 36.6667L26.4167 15.9501C25.4167 15.4001 24.6 14.5834 24.05 13.5834ZM21.6667 8.33341L22.7167 6.05008L25 5.00008L22.7167 3.95008L21.6667 1.66675L20.6334 3.95008L18.3334 5.00008L20.6334 6.05008L21.6667 8.33341ZM35 8.33341L36.05 6.05008L38.3334 5.00008L36.05 3.95008L35 1.66675L33.9667 3.95008L31.6667 5.00008L33.9667 6.05008L35 8.33341ZM35 15.0001L33.9667 17.2834L31.6667 18.3334L33.9667 19.3834L35 21.6667L36.05 19.3834L38.3334 18.3334L36.05 17.2834L35 15.0001Z" />
</svg>
