<svg width="40" height="40" viewBox="0 0 40 40" fill="none" xmlns="http://www.w3.org/2000/svg">
    <path d="M30 5C30.3745 5.00009 30.7403 5.11229 31.0504 5.32215C31.3605 5.53201 31.6007 5.82992 31.74 6.1775C32.11 7.1 32.6775 7.7675 33.235 8.1975C33.84 8.66 34.29 8.745 34.375 8.745C34.8723 8.745 35.3492 8.94254 35.7008 9.29417C36.0525 9.64581 36.25 10.1227 36.25 10.62C36.25 11.1173 36.0525 11.5942 35.7008 11.9458C35.3492 12.2975 34.8723 12.495 34.375 12.495C33.21 12.495 31.975 11.955 30.95 11.17C30.6233 10.92 30.3067 10.6333 30 10.31C29.3589 10.995 28.5849 11.5421 27.7252 11.9177C26.8655 12.2934 25.9382 12.4899 25 12.495C24.062 12.4902 23.1348 12.2941 22.2751 11.9189C21.4155 11.5436 20.6413 10.997 20 10.3125C19.3587 10.997 18.5845 11.5436 17.7249 11.9189C16.8652 12.2941 15.938 12.4902 15 12.495C14.062 12.4902 13.1348 12.2941 12.2751 11.9189C11.4155 11.5436 10.6413 10.997 10 10.3125C9.69333 10.6358 9.37667 10.9233 9.05 11.175C8.0275 11.96 6.7925 12.5 5.625 12.5C5.12772 12.5 4.65081 12.3025 4.29917 11.9508C3.94754 11.5992 3.75 11.1223 3.75 10.625C3.75 10.1277 3.94754 9.65081 4.29917 9.29917C4.65081 8.94754 5.12772 8.75 5.625 8.75C5.7075 8.75 6.16 8.665 6.7625 8.2C7.3225 7.7725 7.89 7.1 8.26 6.18C8.39947 5.83263 8.63972 5.53495 8.94982 5.32529C9.25992 5.11563 9.62567 5.00359 10 5.00359C10.3743 5.00359 10.7401 5.11563 11.0502 5.32529C11.3603 5.53495 11.6005 5.83263 11.74 6.18C12.485 8.035 13.84 8.745 15 8.745C16.16 8.745 17.5175 8.035 18.26 6.1775C18.3995 5.83013 18.6397 5.53245 18.9498 5.32279C19.2599 5.11313 19.6257 5.00109 20 5.00109C20.3743 5.00109 20.7401 5.11313 21.0502 5.32279C21.3603 5.53245 21.6005 5.83013 21.74 6.1775C22.4825 8.035 23.84 8.745 25 8.745C26.16 8.745 27.5175 8.0325 28.26 6.1775C28.3993 5.82992 28.6395 5.53201 28.9496 5.32215C29.2597 5.11229 29.6255 5.00009 30 5ZM30 15C30.3745 15.0001 30.7403 15.1123 31.0504 15.3222C31.3605 15.532 31.6007 15.8299 31.74 16.1775C32.11 17.1 32.6775 17.7675 33.235 18.1975C33.84 18.66 34.29 18.745 34.375 18.745C34.8723 18.745 35.3492 18.9425 35.7008 19.2942C36.0525 19.6458 36.25 20.1227 36.25 20.62C36.25 21.1173 36.0525 21.5942 35.7008 21.9458C35.3492 22.2975 34.8723 22.495 34.375 22.495C33.21 22.495 31.975 21.955 30.95 21.17C30.6233 20.92 30.3067 20.6333 30 20.31C29.3589 20.995 28.5849 21.5421 27.7252 21.9178C26.8655 22.2934 25.9382 22.4899 25 22.495C24.062 22.4902 23.1348 22.2942 22.2751 21.9189C21.4155 21.5436 20.6413 20.997 20 20.3125C19.3587 20.997 18.5845 21.5436 17.7249 21.9189C16.8652 22.2942 15.938 22.4902 15 22.495C14.062 22.4902 13.1348 22.2942 12.2751 21.9189C11.4155 21.5436 10.6413 20.997 10 20.3125C9.69333 20.6358 9.37667 20.9233 9.05 21.175C8.0275 21.96 6.7925 22.5 5.625 22.5C5.12772 22.5 4.65081 22.3025 4.29917 21.9508C3.94754 21.5992 3.75 21.1223 3.75 20.625C3.75 20.1277 3.94754 19.6508 4.29917 19.2992C4.65081 18.9475 5.12772 18.75 5.625 18.75C5.7075 18.75 6.16 18.665 6.7625 18.2C7.3225 17.7725 7.89 17.1 8.26 16.18C8.39947 15.8326 8.63972 15.5349 8.94982 15.3253C9.25992 15.1156 9.62567 15.0036 10 15.0036C10.3743 15.0036 10.7401 15.1156 11.0502 15.3253C11.3603 15.5349 11.6005 15.8326 11.74 16.18C12.485 18.035 13.84 18.745 15 18.745C16.16 18.745 17.5175 18.035 18.26 16.1775C18.3995 15.8301 18.6397 15.5324 18.9498 15.3228C19.2599 15.1131 19.6257 15.0011 20 15.0011C20.3743 15.0011 20.7401 15.1131 21.0502 15.3228C21.3603 15.5324 21.6005 15.8301 21.74 16.1775C22.4825 18.035 23.84 18.745 25 18.745C26.16 18.745 27.5175 18.0325 28.26 16.1775C28.3993 15.8299 28.6395 15.532 28.9496 15.3222C29.2597 15.1123 29.6255 15.0001 30 15ZM31.74 26.1775C31.6005 25.8301 31.3603 25.5324 31.0502 25.3228C30.7401 25.1131 30.3743 25.0011 30 25.0011C29.6257 25.0011 29.2599 25.1131 28.9498 25.3228C28.6397 25.5324 28.3995 25.8301 28.26 26.1775C27.5175 28.0325 26.16 28.745 25 28.745C23.84 28.745 22.4825 28.035 21.74 26.1775C21.6005 25.8301 21.3603 25.5324 21.0502 25.3228C20.7401 25.1131 20.3743 25.0011 20 25.0011C19.6257 25.0011 19.2599 25.1131 18.9498 25.3228C18.6397 25.5324 18.3995 25.8301 18.26 26.1775C17.515 28.0325 16.16 28.745 15 28.745C13.84 28.745 12.485 28.035 11.74 26.1775C11.6005 25.8301 11.3603 25.5324 11.0502 25.3228C10.7401 25.1131 10.3743 25.0011 10 25.0011C9.62567 25.0011 9.25992 25.1131 8.94982 25.3228C8.63972 25.5324 8.39947 25.8301 8.26 26.1775C7.89 27.1025 7.3225 27.77 6.7625 28.2025C6.16 28.665 5.7075 28.75 5.625 28.75C5.12772 28.75 4.65081 28.9475 4.29917 29.2992C3.94754 29.6508 3.75 30.1277 3.75 30.625C3.75 31.1223 3.94754 31.5992 4.29917 31.9508C4.65081 32.3025 5.12772 32.5 5.625 32.5C6.7925 32.5 8.0275 31.96 9.05 31.175C9.37667 30.925 9.69333 30.6375 10 30.3125C10.6413 30.997 11.4155 31.5436 12.2751 31.9189C13.1348 32.2942 14.062 32.4902 15 32.495C15.938 32.4902 16.8652 32.2942 17.7249 31.9189C18.5845 31.5436 19.3587 30.997 20 30.3125C20.6413 30.997 21.4155 31.5436 22.2751 31.9189C23.1348 32.2942 24.062 32.4902 25 32.495C25.9382 32.4899 26.8655 32.2934 27.7252 31.9178C28.5849 31.5421 29.3589 30.995 30 30.31C30.3067 30.6333 30.6233 30.92 30.95 31.17C31.975 31.955 33.21 32.495 34.375 32.495C34.8723 32.495 35.3492 32.2975 35.7008 31.9458C36.0525 31.5942 36.25 31.1173 36.25 30.62C36.25 30.1227 36.0525 29.6458 35.7008 29.2942C35.3492 28.9425 34.8723 28.745 34.375 28.745C34.29 28.745 33.84 28.66 33.235 28.195C32.5647 27.6688 32.0483 26.9719 31.74 26.1775Z" fill="#F4F4F5"/>
</svg>
