<svg width="40" height="40" viewBox="0 0 40 40" fill="none" xmlns="http://www.w3.org/2000/svg">
    <path fill-rule="evenodd" clip-rule="evenodd" d="M18.3334 8.21501C18.3334 7.77298 18.509 7.34906 18.8215 7.0365C19.1341 6.72393 19.558 6.54834 20 6.54834H31.785C32.2271 6.54834 32.651 6.72393 32.9635 7.0365C33.2761 7.34906 33.4517 7.77298 33.4517 8.21501V19.9983C33.4517 20.4404 33.2761 20.8643 32.9635 21.1769C32.651 21.4894 32.2271 21.665 31.785 21.665C31.343 21.665 30.9191 21.4894 30.6065 21.1769C30.294 20.8643 30.1184 20.4404 30.1184 19.9983V12.24L17.6434 24.715L20 27.07C20.1549 27.2247 20.2777 27.4085 20.3616 27.6107C20.4454 27.8129 20.4886 28.0297 20.4887 28.2486C20.4888 28.4675 20.4457 28.6843 20.362 28.8866C20.2783 29.0888 20.1556 29.2727 20.0009 29.4275C19.8461 29.5824 19.6624 29.7052 19.4602 29.7891C19.258 29.8729 19.0412 29.9161 18.8223 29.9162C18.6034 29.9163 18.3866 29.8732 18.1843 29.7895C17.982 29.7058 17.7982 29.5831 17.6434 29.4283L15.2867 27.07L9.39337 32.9633C9.07903 33.2669 8.65803 33.4349 8.22103 33.4311C7.78404 33.4273 7.36602 33.252 7.057 32.943C6.74799 32.634 6.57271 32.216 6.56891 31.779C6.56511 31.342 6.7331 30.921 7.0367 30.6067L12.9284 24.7133L10.5717 22.3567C10.4125 22.2029 10.2855 22.019 10.1982 21.8157C10.1108 21.6123 10.0649 21.3936 10.063 21.1723C10.061 20.951 10.1032 20.7316 10.187 20.5267C10.2708 20.3219 10.3946 20.1358 10.551 19.9793C10.7075 19.8229 10.8936 19.6991 11.0984 19.6153C11.3033 19.5315 11.5227 19.4893 11.744 19.4913C11.9653 19.4932 12.184 19.5392 12.3874 19.6265C12.5907 19.7139 12.7746 19.8408 12.9284 20L15.2867 22.3567L27.7617 9.88167H20C19.558 9.88167 19.1341 9.70608 18.8215 9.39352C18.509 9.08096 18.3334 8.65703 18.3334 8.21501Z" fill="#F4F4F5"/>
</svg>
