<svg width="40" height="40" viewBox="0 0 40 40" fill="none" xmlns="http://www.w3.org/2000/svg">
    <path d="M17.45 12.93C17.0334 11.2617 16.4667 9.30835 15.3917 7.77502C14.24 6.13335 12.5017 4.97169 9.98835 5.00002C8.22024 5.00157 6.52516 5.70543 5.27601 6.95677C4.02687 8.2081 3.32597 9.90441 3.32752 11.6725C3.32906 13.4406 4.03293 15.1357 5.28426 16.3849C6.5356 17.634 8.23191 18.3349 10 18.3334C10.442 18.3334 10.866 18.1578 11.1785 17.8452C11.4911 17.5326 11.6667 17.1087 11.6667 16.6667C11.6667 16.2247 11.4911 15.8007 11.1785 15.4882C10.866 15.1756 10.442 15 10 15C9.11596 15 8.26812 14.6488 7.64299 14.0237C7.01787 13.3986 6.66668 12.5507 6.66668 11.6667C6.66668 10.7826 7.01787 9.93478 7.64299 9.30966C8.26812 8.68454 9.11596 8.33335 10 8.33335H10.0217C11.2967 8.31669 12.055 8.82169 12.6617 9.68835C13.3467 10.6667 13.8 12.0717 14.2167 13.7384C14.6217 15.36 15.655 20.315 16.5967 24.9184C17.1902 27.8228 17.778 30.7283 18.36 33.635C18.43 34.0161 18.6306 34.3609 18.9273 34.6101C19.224 34.8593 19.5982 34.9973 19.9857 35.0005C20.3731 35.0036 20.7495 34.8717 21.0502 34.6274C21.351 34.383 21.5571 34.0416 21.6333 33.6617C22.2213 30.7339 22.8146 27.8073 23.4134 24.8817C24.3567 20.265 25.39 15.3134 25.7834 13.7384C26.2 12.0717 26.6534 10.6667 27.3384 9.68835C27.945 8.82169 28.705 8.31669 29.9783 8.33335H30C30.8841 8.33335 31.7319 8.68454 32.357 9.30966C32.9822 9.93478 33.3334 10.7826 33.3334 11.6667C33.3334 12.5507 32.9822 13.3986 32.357 14.0237C31.7319 14.6488 30.8841 15 30 15C29.558 15 29.1341 15.1756 28.8215 15.4882C28.5089 15.8007 28.3334 16.2247 28.3334 16.6667C28.3334 17.1087 28.5089 17.5326 28.8215 17.8452C29.1341 18.1578 29.558 18.3334 30 18.3334C31.7681 18.3349 33.4644 17.634 34.7158 16.3849C35.9671 15.1357 36.671 13.4406 36.6725 11.6725C36.6741 9.90441 35.9732 8.2081 34.724 6.95677C33.4749 5.70543 31.7798 5.00157 30.0117 5.00002C27.4984 4.97169 25.7617 6.13169 24.6084 7.77502C23.5334 9.30835 22.9667 11.2617 22.55 12.93C22.1334 14.5934 21.0834 19.64 20.1467 24.2134L20.0017 24.93L19.8617 24.25C18.9284 19.6867 17.8784 14.64 17.45 12.93Z" fill="#F4F4F5"/>
</svg>
