<svg width="40" height="40" viewBox="0 0 40 40" fill="none" xmlns="http://www.w3.org/2000/svg">
    <path fill-rule="evenodd" clip-rule="evenodd" d="M10.8667 5.20492C11.2541 4.99273 11.71 4.94305 12.1341 5.0668C12.5582 5.19056 12.9158 5.47763 13.1283 5.86492C15.1283 9.51159 16.37 13.7533 16.62 18.2983H23.38C23.63 13.7533 24.8733 9.51159 26.8717 5.86492C27.0843 5.47727 27.4422 5.18995 27.8666 5.06617C28.2911 4.9424 28.7473 4.99231 29.135 5.20492C29.5227 5.41754 29.81 5.77544 29.9337 6.1999C30.0575 6.62436 30.0076 7.0806 29.795 7.46826C28.065 10.6233 26.965 14.3149 26.72 18.2966H30.0367C30.4787 18.2966 30.9026 18.4722 31.2152 18.7847C31.5277 19.0973 31.7033 19.5212 31.7033 19.9633C31.7033 20.4053 31.5277 20.8292 31.2152 21.1418C30.9026 21.4543 30.4787 21.6299 30.0367 21.6299H26.715C26.9517 25.6399 28.055 29.3583 29.795 32.5333C29.9959 32.92 30.0373 33.37 29.9104 33.7868C29.7835 34.2037 29.4984 34.5543 29.1162 34.7635C28.7339 34.9728 28.2849 35.0239 27.8654 34.9061C27.4458 34.7883 27.0891 34.5109 26.8717 34.1333C24.8633 30.4699 23.6167 26.1999 23.3767 21.6299H16.6233C16.3833 26.2016 15.1383 30.4699 13.1283 34.1349C13.0231 34.3269 12.881 34.4962 12.7103 34.6333C12.5396 34.7703 12.3435 34.8724 12.1334 34.9337C11.9232 34.995 11.703 35.0142 11.4854 34.9904C11.2677 34.9666 11.0569 34.9002 10.865 34.7949C10.673 34.6896 10.5037 34.5476 10.3667 34.3769C10.2296 34.2062 10.1275 34.0101 10.0662 33.7999C10.005 33.5898 9.98567 33.3696 10.0095 33.152C10.0333 32.9343 10.0997 32.7235 10.205 32.5316C11.945 29.3583 13.0483 25.6416 13.285 21.6316H10.0367C9.59463 21.6316 9.17071 21.456 8.85815 21.1434C8.54559 20.8309 8.37 20.407 8.37 19.9649C8.37 19.5229 8.54559 19.099 8.85815 18.7864C9.17071 18.4739 9.59463 18.2983 10.0367 18.2983H13.2817C13.0333 14.3133 11.9333 10.6216 10.205 7.46659C10.0997 7.27465 10.0332 7.06385 10.0093 6.84621C9.98551 6.62857 10.0048 6.40837 10.0661 6.19819C10.1274 5.988 10.2295 5.79195 10.3666 5.62124C10.5036 5.45053 10.673 5.30849 10.865 5.20326" fill="#F4F4F5"/>
</svg>
