<svg width="40" height="40" viewBox="0 0 40 40" fill="none" xmlns="http://www.w3.org/2000/svg">
    <path d="M25.9834 15C27.7139 13.9662 29.147 12.5016 30.143 10.7491C31.1391 8.99653 31.664 7.01581 31.6667 5H28.3334C28.3334 7.21014 27.4554 9.32975 25.8926 10.8926C24.3298 12.4554 22.2102 13.3333 20 13.3333C17.7899 13.3333 15.6703 12.4554 14.1075 10.8926C12.5447 9.32975 11.6667 7.21014 11.6667 5H8.33336C8.33336 9.1 10.5 12.9 14.0167 15C8.48336 18.3333 6.6667 25.4667 10 31C13.2834 36.5333 20.45 38.3333 25.9834 35C31.5167 31.7333 33.3334 24.5667 30 19.0333C29.0203 17.3735 27.6391 15.9866 25.9834 15ZM20 33.3333C17.7899 33.3333 15.6703 32.4554 14.1075 30.8926C12.5447 29.3298 11.6667 27.2101 11.6667 25C11.6667 22.7899 12.5447 20.6702 14.1075 19.1074C15.6703 17.5446 17.7899 16.6667 20 16.6667C22.2102 16.6667 24.3298 17.5446 25.8926 19.1074C27.4554 20.6702 28.3334 22.7899 28.3334 25C28.3334 27.2101 27.4554 29.3298 25.8926 30.8926C24.3298 32.4554 22.2102 33.3333 20 33.3333Z" fill="#F4F4F5"/>
</svg>
