<svg width="40" height="40" viewBox="0 0 40 40" fill="none" xmlns="http://www.w3.org/2000/svg">
    <path fill-rule="evenodd" clip-rule="evenodd" d="M28.3333 16.6667C30.1014 16.6667 31.7971 17.3691 33.0474 18.6193C34.2976 19.8695 35 21.5652 35 23.3333C35 26.57 33.6083 29.1617 31.4217 30.9917C29.2733 32.79 26.4133 33.8167 23.4167 34.1567C17.47 34.83 10.3983 32.84 6.21 27.7233C5.92998 27.3812 5.79733 26.9419 5.84125 26.5019C5.88516 26.062 6.10204 25.6575 6.44417 25.3775C6.7863 25.0975 7.22565 24.9648 7.66558 25.0088C8.10551 25.0527 8.50998 25.2695 8.79 25.6117C12.1017 29.6617 17.9467 31.4217 23.0417 30.845C24.3786 30.7045 25.6879 30.3699 26.9283 29.8517C25.3228 29.5013 23.9032 28.5705 22.9418 27.2377C21.9804 25.9049 21.5451 24.2641 21.7192 22.63C21.8934 20.9959 22.6648 19.4837 23.8854 18.3835C25.1061 17.2832 26.69 16.6725 28.3333 16.6683M28.3333 20.0017C27.4493 20.0017 26.6014 20.3529 25.9763 20.978C25.3512 21.6031 25 22.451 25 23.335C25 24.2191 25.3512 25.0669 25.9763 25.692C26.6014 26.3172 27.4493 26.6683 28.3333 26.6683C29.2174 26.6683 30.0652 26.3172 30.6904 25.692C31.3155 25.0669 31.6667 24.2191 31.6667 23.335C31.6667 22.451 31.3155 21.6031 30.6904 20.978C30.0652 20.3529 29.2174 20.0017 28.3333 20.0017ZM33.79 12.28C34.07 12.6221 34.2027 13.0615 34.1588 13.5014C34.1148 13.9414 33.898 14.3458 33.5558 14.6258C33.2137 14.9059 32.7743 15.0385 32.3344 14.9946C31.8945 14.9507 31.49 14.7338 31.21 14.3917C27.8983 10.3417 22.0533 8.58168 16.9583 9.15835C15.6219 9.30063 14.3129 9.63461 13.0717 10.15C14.6772 10.5004 16.0968 11.4312 17.0582 12.764C18.0196 14.0968 18.4549 15.7376 18.2808 17.3717C18.1066 19.0058 17.3352 20.518 16.1146 21.6182C14.8939 22.7185 13.31 23.3292 11.6667 23.3333C9.89856 23.3333 8.20286 22.631 6.95262 21.3807C5.70238 20.1305 5 18.4348 5 16.6667C5 13.4317 6.39167 10.8383 8.57833 9.00835C10.7267 7.21168 13.5867 6.18335 16.5833 5.84501C22.53 5.17168 29.6017 7.16335 33.79 12.28ZM11.6667 13.3333C10.7826 13.3333 9.93477 13.6845 9.30964 14.3097C8.68452 14.9348 8.33333 15.7826 8.33333 16.6667C8.33333 17.5507 8.68452 18.3986 9.30964 19.0237C9.93477 19.6488 10.7826 20 11.6667 20C12.5507 20 13.3986 19.6488 14.0237 19.0237C14.6488 18.3986 15 17.5507 15 16.6667C15 15.7826 14.6488 14.9348 14.0237 14.3097C13.3986 13.6845 12.5507 13.3333 11.6667 13.3333Z" fill="#F4F4F5"/>
</svg>
