<svg width="40" height="40" viewBox="0 0 40 40" fill="none" xmlns="http://www.w3.org/2000/svg">
    <path fill-rule="evenodd" clip-rule="evenodd" d="M5 6.66667C5 6.22464 5.17559 5.80072 5.48816 5.48816C5.80072 5.17559 6.22464 5 6.66667 5H8.33333C9.61333 5 10.7833 5.48167 11.6667 6.27333C12.5834 5.45337 13.7701 5.00003 15 5C16.28 5 17.45 5.48167 18.3333 6.27333C19.0528 5.62986 19.943 5.20838 20.8967 5.05975C21.8504 4.91112 22.8267 5.0417 23.7079 5.43574C24.589 5.82977 25.3372 6.47041 25.8622 7.28032C26.3873 8.09023 26.6666 9.0348 26.6667 10V17.7533C27.6317 17.0415 28.8008 16.6604 30 16.6667C32.4217 16.6667 34.3233 17.7933 35.21 19.7217C36.05 21.5517 35.8167 23.7617 34.8233 25.745C33.7167 27.96 31.7267 29.4983 29.6933 30.585C30.74 31.2683 31.99 31.6667 33.3333 31.6667C33.7754 31.6667 34.1993 31.8423 34.5118 32.1548C34.8244 32.4674 35 32.8913 35 33.3333C35 33.7754 34.8244 34.1993 34.5118 34.5118C34.1993 34.8244 33.7754 35 33.3333 35C32.0189 35.0018 30.7171 34.7435 29.5028 34.2401C28.2886 33.7366 27.1859 32.998 26.2583 32.0667C24.6767 32.6217 23.1817 33.005 22.07 33.2833C21.8563 33.3407 21.6333 33.3549 21.414 33.3251C21.1948 33.2954 20.9836 33.2223 20.7929 33.11C20.6022 32.9978 20.4357 32.8488 20.3033 32.6715C20.1708 32.4943 20.0749 32.2925 20.0212 32.0778C19.9675 31.8632 19.9572 31.6399 19.9907 31.4212C20.0242 31.2025 20.1009 30.9926 20.2164 30.8039C20.3318 30.6151 20.4837 30.4513 20.6632 30.3218C20.8427 30.1924 21.0461 30.1 21.2617 30.05C22.2712 29.8041 23.2728 29.5267 24.265 29.2183C23.6508 27.8969 23.3328 26.4572 23.3333 25V10C23.3333 9.55797 23.1577 9.13405 22.8452 8.82149C22.5326 8.50893 22.1087 8.33333 21.6667 8.33333C21.2246 8.33333 20.8007 8.50893 20.4882 8.82149C20.1756 9.13405 20 9.55797 20 10V25C20 25.442 19.8244 25.8659 19.5118 26.1785C19.1993 26.4911 18.7754 26.6667 18.3333 26.6667C17.8913 26.6667 17.4674 26.4911 17.1548 26.1785C16.8423 25.8659 16.6667 25.442 16.6667 25V10C16.6667 9.55797 16.4911 9.13405 16.1785 8.82149C15.866 8.50893 15.442 8.33333 15 8.33333C14.558 8.33333 14.134 8.50893 13.8215 8.82149C13.5089 9.13405 13.3333 9.55797 13.3333 10V25C13.3333 25.442 13.1577 25.8659 12.8452 26.1785C12.5326 26.4911 12.1087 26.6667 11.6667 26.6667C11.2246 26.6667 10.8007 26.4911 10.4882 26.1785C10.1756 25.8659 10 25.442 10 25V10C10 9.55797 9.8244 9.13405 9.51184 8.82149C9.19928 8.50893 8.77536 8.33333 8.33333 8.33333H6.66667C6.22464 8.33333 5.80072 8.15774 5.48816 7.84518C5.17559 7.53262 5 7.10869 5 6.66667ZM26.6667 25C26.6667 26.085 26.9267 27.11 27.3867 28.0167C29.4433 27.0417 31.0667 25.8067 31.8433 24.255C32.5167 22.905 32.4883 21.7817 32.18 21.1117C31.9183 20.54 31.32 20 30 20C29.0833 20 28.2967 20.51 27.66 21.52C27.0252 22.571 26.6823 23.7723 26.6667 25Z" fill="#F4F4F5"/>
</svg>
