<svg width="40" height="40" viewBox="0 0 40 40" fill="none" xmlns="http://www.w3.org/2000/svg">
    <path fill-rule="evenodd" clip-rule="evenodd" d="M5 6.66667C5 6.22464 5.17559 5.80072 5.48816 5.48816C5.80072 5.1756 6.22464 5.00001 6.66667 5.00001H8.33333C9.05927 4.99896 9.77667 5.15652 10.4353 5.46168C11.094 5.76684 11.6781 6.21222 12.1467 6.76667C13.099 5.88825 14.2867 5.30637 15.5644 5.09217C16.8422 4.87796 18.1547 5.04072 19.3415 5.56054C20.5282 6.08036 21.5378 6.93471 22.2467 8.01914C22.9557 9.10357 23.3333 10.3711 23.3333 11.6667V23.1967C24.0605 22.2065 25.0104 21.4012 26.1062 20.8459C27.2021 20.2906 28.4132 20.0008 29.6417 20C31.0628 20 32.4257 20.5645 33.4306 21.5694C34.4355 22.5743 35 23.9372 35 25.3583V25.8333C35 27.3804 34.3854 28.8642 33.2915 29.9581C32.1975 31.0521 30.7138 31.6667 29.1667 31.6667H28.3333C26.8758 31.6668 25.4437 31.2846 24.18 30.5583C23.7201 31.8573 22.869 32.9818 21.7438 33.7772C20.6186 34.5726 19.2746 34.9998 17.8967 35H16.6667C16.2246 35 15.8007 34.8244 15.4882 34.5119C15.1756 34.1993 15 33.7754 15 33.3333C15 32.8913 15.1756 32.4674 15.4882 32.1548C15.8007 31.8423 16.2246 31.6667 16.6667 31.6667H17.895C18.6192 31.6667 19.3238 31.4309 19.902 30.9948C20.4803 30.5588 20.9008 29.9463 21.1 29.25L21.45 28.03C20.5054 26.6458 20.0001 25.0091 20 23.3333V11.6667C20 10.7826 19.6488 9.93477 19.0237 9.30965C18.3986 8.68453 17.5507 8.33334 16.6667 8.33334C15.7826 8.33334 14.9348 8.68453 14.3096 9.30965C13.6845 9.93477 13.3333 10.7826 13.3333 11.6667V25C13.3333 25.442 13.1577 25.866 12.8452 26.1785C12.5326 26.4911 12.1087 26.6667 11.6667 26.6667C11.2246 26.6667 10.8007 26.4911 10.4882 26.1785C10.1756 25.866 10 25.442 10 25V10C10 9.55798 9.8244 9.13405 9.51184 8.82149C9.19928 8.50893 8.77536 8.33334 8.33333 8.33334H6.66667C6.22464 8.33334 5.80072 8.15774 5.48816 7.84518C5.17559 7.53262 5 7.1087 5 6.66667ZM25.155 27.1933C26.0502 27.9304 27.1737 28.3334 28.3333 28.3333H29.1667C29.8297 28.3333 30.4656 28.0699 30.9344 27.6011C31.4033 27.1323 31.6667 26.4964 31.6667 25.8333V25.3583C31.6667 24.24 30.76 23.3333 29.6417 23.3333C28.6667 23.3329 27.7183 23.6503 26.9399 24.2373C26.1616 24.8244 25.5958 25.6492 25.3283 26.5867L25.155 27.1933Z" fill="#F4F4F5"/>
</svg>
