<svg width="40" height="40" viewBox="0 0 40 40" fill="none" xmlns="http://www.w3.org/2000/svg">
    <path fill-rule="evenodd" clip-rule="evenodd" d="M22.5001 8.33333C20.953 8.33333 19.4693 8.94792 18.3753 10.0419C17.2814 11.1358 16.6668 12.6196 16.6668 14.1667C16.6668 14.5383 16.7634 15.025 16.9751 15.7333C17.0701 16.055 17.1801 16.3917 17.3018 16.7667L17.3318 16.86C17.4673 17.2678 17.6051 17.7067 17.7451 18.1767C18.2918 20.0367 18.7701 22.3533 18.3318 25.1433C18.3006 26.5803 17.8059 27.9688 16.9213 29.1016C16.0367 30.2345 14.8097 31.0512 13.4232 31.4299C12.0366 31.8086 10.5648 31.729 9.2272 31.2031C7.88956 30.6772 6.75772 29.733 6.00042 28.5113C5.24312 27.2897 4.90092 25.856 5.02483 24.4241C5.14874 22.9921 5.73212 21.6385 6.68801 20.5651C7.64391 19.4917 8.92111 18.756 10.3292 18.4677C11.7373 18.1793 13.2009 18.3538 14.5018 18.965C14.3827 18.5724 14.2588 18.1812 14.1301 17.7917C14.0101 17.425 13.8884 17.05 13.7801 16.6867C13.5501 15.9133 13.3334 15.045 13.3334 14.1667C13.3334 11.7355 14.2992 9.40394 16.0183 7.68485C17.7374 5.96577 20.069 5 22.5001 5C24.9313 5 27.2628 5.96577 28.9819 7.68485C30.701 9.40394 31.6668 11.7355 31.6668 14.1667C31.6668 15.7617 31.1418 17.3667 30.4784 18.8467C29.8101 20.3367 28.9284 21.8467 28.1001 23.2467L27.8784 23.62C27.1134 24.9083 26.4118 26.0933 25.8751 27.1983C25.2751 28.435 25.0001 29.35 25.0001 30C25.0001 30.8841 25.3513 31.7319 25.9764 32.357C26.6015 32.9821 27.4494 33.3333 28.3334 33.3333C29.2175 33.3333 30.0653 32.9821 30.6905 32.357C31.3156 31.7319 31.6668 30.8841 31.6668 30C31.6668 29.558 31.8424 29.134 32.1549 28.8215C32.4675 28.5089 32.8914 28.3333 33.3334 28.3333C33.7755 28.3333 34.1994 28.5089 34.512 28.8215C34.8245 29.134 35.0001 29.558 35.0001 30C35.0001 31.7681 34.2977 33.4638 33.0475 34.714C31.7972 35.9643 30.1015 36.6667 28.3334 36.6667C26.5653 36.6667 24.8696 35.9643 23.6194 34.714C22.3692 33.4638 21.6668 31.7681 21.6668 30C21.6668 28.5667 22.2251 27.085 22.8751 25.745C23.4751 24.505 24.2534 23.195 25.0018 21.9367L25.2334 21.5467C26.0701 20.1333 26.8568 18.7767 27.4384 17.4817C28.0251 16.1733 28.3334 15.0717 28.3334 14.1667C28.3334 10.9383 25.7234 8.33333 22.5001 8.33333ZM11.6668 21.6667C10.7827 21.6667 9.93487 22.0179 9.30975 22.643C8.68463 23.2681 8.33344 24.1159 8.33344 25C8.33344 25.8841 8.68463 26.7319 9.30975 27.357C9.93487 27.9821 10.7827 28.3333 11.6668 28.3333C12.5508 28.3333 13.3987 27.9821 14.0238 27.357C14.6489 26.7319 15.0001 25.8841 15.0001 25C15.0001 24.1159 14.6489 23.2681 14.0238 22.643C13.3987 22.0179 12.5508 21.6667 11.6668 21.6667Z" fill="#F4F4F5"/>
</svg>
