<svg width="40" height="40" viewBox="0 0 40 40" fill="none" xmlns="http://www.w3.org/2000/svg">
    <path fill-rule="evenodd" clip-rule="evenodd" d="M20 6.66659C17.5957 6.66345 15.2709 7.5266 13.4512 9.09792C11.6316 10.6692 10.4389 12.8435 10.0917 15.2225C9.74455 17.6016 10.2661 20.026 11.5608 22.0518C12.8555 24.0776 14.8368 25.5692 17.1416 26.2533C17.4857 26.3556 17.7876 26.5662 18.0023 26.8539C18.217 27.1416 18.3331 27.4909 18.3333 27.8499V28.3333C18.3333 28.7753 18.1577 29.1992 17.8451 29.5118C17.5326 29.8243 17.1087 29.9999 16.6666 29.9999H8.33329C7.89127 29.9999 7.46734 29.8243 7.15478 29.5118C6.84222 29.1992 6.66663 28.7753 6.66663 28.3333C6.66663 27.8912 6.84222 27.4673 7.15478 27.1547C7.46734 26.8422 7.89127 26.6666 8.33329 26.6666H11.1816C9.15041 24.8752 7.71287 22.5078 7.0603 19.8793C6.40773 17.2508 6.57108 14.4859 7.5286 11.9525C8.48612 9.41917 10.1924 7.23746 12.4204 5.69773C14.6484 4.15799 17.2925 3.33325 20.0008 3.33325C22.7091 3.33325 25.3531 4.15799 27.5812 5.69773C29.8092 7.23746 31.5155 9.41917 32.473 11.9525C33.4305 14.4859 33.5939 17.2508 32.9413 19.8793C32.2887 22.5078 30.8512 24.8752 28.82 26.6666H31.6666C32.1087 26.6666 32.5326 26.8422 32.8451 27.1547C33.1577 27.4673 33.3333 27.8912 33.3333 28.3333C33.3333 28.7753 33.1577 29.1992 32.8451 29.5118C32.5326 29.8243 32.1087 29.9999 31.6666 29.9999H23.3333C22.8913 29.9999 22.4673 29.8243 22.1548 29.5118C21.8422 29.1992 21.6666 28.7753 21.6666 28.3333V27.8499C21.6668 27.4909 21.7829 27.1416 21.9976 26.8539C22.2123 26.5662 22.5142 26.3556 22.8583 26.2533C25.1631 25.5692 27.1444 24.0776 28.4391 22.0518C29.7338 20.026 30.2554 17.6016 29.9082 15.2225C29.561 12.8435 28.3684 10.6692 26.5487 9.09792C24.729 7.5266 22.4042 6.66345 20 6.66659ZM6.66663 34.9999C6.66663 34.5579 6.84222 34.134 7.15478 33.8214C7.46734 33.5088 7.89127 33.3333 8.33329 33.3333H31.6666C32.1087 33.3333 32.5326 33.5088 32.8451 33.8214C33.1577 34.134 33.3333 34.5579 33.3333 34.9999C33.3333 35.4419 33.1577 35.8659 32.8451 36.1784C32.5326 36.491 32.1087 36.6666 31.6666 36.6666H8.33329C7.89127 36.6666 7.46734 36.491 7.15478 36.1784C6.84222 35.8659 6.66663 35.4419 6.66663 34.9999Z" fill="#F4F4F5"/>
</svg>
