<svg width="40" height="40" viewBox="0 0 40 40" fill="none" xmlns="http://www.w3.org/2000/svg">
    <path fill-rule="evenodd" clip-rule="evenodd" d="M5 6.66667C5 6.22464 5.17559 5.80072 5.48816 5.48816C5.80072 5.17559 6.22464 5 6.66667 5H8.33333C9.61333 5 10.7833 5.48167 11.6667 6.27333C12.5834 5.45337 13.7701 5.00003 15 5C16.28 5 17.45 5.48167 18.3333 6.27333C19.0528 5.62986 19.943 5.20838 20.8967 5.05975C21.8504 4.91112 22.8267 5.0417 23.7079 5.43574C24.589 5.82977 25.3372 6.47041 25.8622 7.28032C26.3873 8.09023 26.6666 9.0348 26.6667 10V26.6667C26.6667 27.5507 27.0179 28.3986 27.643 29.0237C28.2681 29.6488 29.1159 30 30 30H30.9767L29.655 28.6783C29.3514 28.364 29.1834 27.943 29.1872 27.506C29.191 27.069 29.3663 26.651 29.6753 26.342C29.9843 26.033 30.4023 25.8577 30.8393 25.8539C31.2763 25.8501 31.6973 26.0181 32.0117 26.3217L36.1783 30.4883C36.4908 30.8009 36.6663 31.2247 36.6663 31.6667C36.6663 32.1086 36.4908 32.5325 36.1783 32.845L32.0117 37.0117C31.6973 37.3153 31.2763 37.4833 30.8393 37.4795C30.4023 37.4757 29.9843 37.3004 29.6753 36.9914C29.3663 36.6823 29.191 36.2643 29.1872 35.8273C29.1834 35.3903 29.3514 34.9693 29.655 34.655L30.9767 33.3333H30C28.2319 33.3333 26.5362 32.631 25.286 31.3807C24.0357 30.1305 23.3333 28.4348 23.3333 26.6667V10C23.3333 9.55797 23.1577 9.13405 22.8452 8.82149C22.5326 8.50893 22.1087 8.33333 21.6667 8.33333C21.2246 8.33333 20.8007 8.50893 20.4882 8.82149C20.1756 9.13405 20 9.55797 20 10V25C20 25.442 19.8244 25.8659 19.5118 26.1785C19.1993 26.4911 18.7754 26.6667 18.3333 26.6667C17.8913 26.6667 17.4674 26.4911 17.1548 26.1785C16.8423 25.8659 16.6667 25.442 16.6667 25V10C16.6667 9.55797 16.4911 9.13405 16.1785 8.82149C15.866 8.50893 15.442 8.33333 15 8.33333C14.558 8.33333 14.134 8.50893 13.8215 8.82149C13.5089 9.13405 13.3333 9.55797 13.3333 10V25C13.3333 25.442 13.1577 25.8659 12.8452 26.1785C12.5326 26.4911 12.1087 26.6667 11.6667 26.6667C11.2246 26.6667 10.8007 26.4911 10.4882 26.1785C10.1756 25.8659 10 25.442 10 25V10C10 9.55797 9.8244 9.13405 9.51184 8.82149C9.19928 8.50893 8.77536 8.33333 8.33333 8.33333H6.66667C6.22464 8.33333 5.80072 8.15774 5.48816 7.84518C5.17559 7.53262 5 7.10869 5 6.66667Z" fill="#F4F4F5"/>
</svg>
